<?xml version="1.0" encoding="UTF-8" standalone="no"?>
<!-- Created with Inkscape (http://www.inkscape.org/) -->

<svg
   version="1.1"
   id="svg1"
   width="854.03998"
   height="978.35999"
   viewBox="0 0 854.03998 978.35999"
   sodipodi:docname="ZUES_MKL_LOGO.eps"
   xmlns:inkscape="http://www.inkscape.org/namespaces/inkscape"
   xmlns:sodipodi="http://sodipodi.sourceforge.net/DTD/sodipodi-0.dtd"
   xmlns="http://www.w3.org/2000/svg"
   xmlns:svg="http://www.w3.org/2000/svg">
  <defs
     id="defs1" />
  <sodipodi:namedview
     id="namedview1"
     pagecolor="#ffffff"
     bordercolor="#000000"
     borderopacity="0.25"
     inkscape:showpageshadow="2"
     inkscape:pageopacity="0.0"
     inkscape:pagecheckerboard="0"
     inkscape:deskcolor="#d1d1d1">
    <inkscape:page
       x="0"
       y="0"
       inkscape:label="1"
       id="page1"
       width="854.03998"
       height="978.35999"
       margin="0"
       bleed="0" />
  </sodipodi:namedview>
  <g
     id="g1"
     inkscape:groupmode="layer"
     inkscape:label="1">
    <g
       id="group-R5">
      <path
         id="path2"
         d="m 6259.25,3083.75 h -113.42 c 18.99,75.56 19.46,138.1 19.46,138.1 -322.77,-147.84 -597.79,307.14 -738.84,607.89 -139.4,333.17 -275.56,714.96 -353.82,1082.9 -0.05,0.21 -0.09,0.41 -0.14,0.61 -5.81,34.3 -14.41,71.23 -25.06,109.74 -75.56,310.08 -166.12,500.62 -251.16,617.38 -14.13,28.48 -22.64,44.88 -22.64,44.88 l 7.15,300.01 -135.72,200 7.15,150 c -7.15,135.72 -271.44,314.29 -271.44,314.29 -178.57,335.72 -528.57,407.15 -528.57,407.15 -189.25,277.1 -605.27,208.93 -649.51,200.79 -44.24,8.14 -460.26,76.31 -649.51,-200.79 0,0 -350,-71.43 -528.58,-407.15 0,0 -264.29,-178.57 -271.43,-314.29 l 7.14,-150 -135.71,-200 7.14,-300.01 c 0,0 -8.5,-16.4 -22.63,-44.88 -85.04,-116.76 -175.6,-307.29 -251.16,-617.36 -10.66,-38.52 -19.26,-75.47 -25.07,-109.77 -0.04,-0.2 -0.09,-0.4 -0.13,-0.6 -78.26,-367.94 -214.42,-749.73 -353.824,-1082.9 -141.055,-300.75 -416.071,-755.73 -738.844,-607.89 0,0 0.469,-62.54 19.457,-138.1 h -31.695 l 23.094,-61.05 78.417,-207.31 -226.746,-844.57 -15.2418,-56.79 h 0.4726 l 58.7812,-0.2 h 2118.779 34.42 l 0.02,0.05 29.96,-0.05 h 357.05 34.76 l 0.03,0.11 207.75,-0.01 -63.56,-455.4 -6.04,-43.28 0.36,-0.06 -77.87,-557.659 -48.68,-348.672 134.99,325.129 448.34,1079.922 57.06,-0.08 h 297.51 l 58.39,0.07 178.62,-0.01 v 0 l 30.5,-0.06 h 166.86 2.04 10.18 306.3 4.3 13.83 298.22 l 56.99,0.03 180.37,-0.01 v 0 l 29.96,-0.02 h 138.29 46.74 776.84 34.6 l 8.96,33.41 289.31,1079.74 15.21,56.77 h -58.76"
         style="fill:#231f20;fill-opacity:1;fill-rule:nonzero;stroke:none"
         transform="matrix(0.13333333,0,0,-0.13333333,0,978.36)" />
      <path
         id="path3"
         d="m 6259.25,3083.75 h -113.42 c 18.99,75.56 19.46,138.1 19.46,138.1 -322.77,-147.84 -597.79,307.14 -738.84,607.89 -139.4,333.17 -275.56,714.96 -353.82,1082.9 -0.05,0.21 -0.09,0.41 -0.14,0.61 -5.81,34.3 -14.41,71.23 -25.06,109.74 -75.56,310.08 -166.12,500.62 -251.16,617.38 -14.13,28.48 -22.64,44.88 -22.64,44.88 l 7.15,300.01 -135.72,200 7.15,150 c -7.15,135.72 -271.44,314.29 -271.44,314.29 -178.57,335.72 -528.57,407.15 -528.57,407.15 -189.25,277.1 -605.27,208.93 -649.51,200.79 -44.24,8.14 -460.26,76.31 -649.51,-200.79 0,0 -350,-71.43 -528.58,-407.15 0,0 -264.29,-178.57 -271.43,-314.29 l 7.14,-150 -135.71,-200 7.14,-300.01 c 0,0 -8.5,-16.4 -22.63,-44.88 -85.04,-116.76 -175.6,-307.29 -251.16,-617.36 -10.66,-38.52 -19.26,-75.47 -25.07,-109.77 -0.04,-0.2 -0.09,-0.4 -0.13,-0.6 -78.26,-367.94 -214.42,-749.73 -353.824,-1082.9 -141.055,-300.75 -416.071,-755.73 -738.844,-607.89 0,0 0.469,-62.54 19.457,-138.1 h -31.695 l 23.094,-61.05 78.417,-207.31 -226.746,-844.57 -15.2418,-56.79 h 0.4726 l 58.7812,-0.2 h 2118.779 34.42 l 0.02,0.05 29.96,-0.05 h 357.05 34.76 l 0.03,0.11 207.75,-0.01 -63.56,-455.4 -6.04,-43.28 0.36,-0.06 -77.87,-557.659 -48.68,-348.672 134.99,325.129 448.34,1079.922 57.06,-0.08 h 297.51 l 58.39,0.07 178.62,-0.01 v 0 l 30.5,-0.06 h 166.86 2.04 10.18 306.3 4.3 13.83 298.22 l 56.99,0.03 180.37,-0.01 v 0 l 29.96,-0.02 h 138.29 46.74 776.84 34.6 l 8.96,33.41 289.31,1079.74 15.21,56.77 z"
         style="fill:none;stroke:#d3d2d2;stroke-width:134.014;stroke-linecap:butt;stroke-linejoin:miter;stroke-miterlimit:10;stroke-dasharray:none;stroke-opacity:1"
         transform="matrix(0.13333333,0,0,-0.13333333,0,978.36)" />
      <path
         id="path4"
         d="m 5897.66,2858.68 c 0,0 -617.01,1075.98 -825.03,2053.97 -208.04,978 -561.6,910.02 -561.6,910.02 L 3729.22,2996.95 c 0,0 1488.54,-758.22 2168.44,-138.27"
         style="fill:#231f20;fill-opacity:1;fill-rule:nonzero;stroke:none"
         transform="matrix(0.13333333,0,0,-0.13333333,0,978.36)" />
      <path
         id="path5"
         d="m 4654.87,3508.67 47.65,-515.27 c 0,0 375.29,252.23 396.14,450.77 20.85,198.53 -530.93,705.1 -530.93,705.1 l 87.14,-640.6"
         style="fill:#231f20;fill-opacity:1;fill-rule:nonzero;stroke:none"
         transform="matrix(0.13333333,0,0,-0.13333333,0,978.36)" />
      <path
         id="path6"
         d="m 3198.61,7256.73 c 0,0 453.58,92.84 653.59,-200.02 0,0 350,-71.42 528.57,-407.15 0,0 264.29,-178.57 271.44,-314.28 l -7.15,-150.01 135.72,-200 -7.15,-300 c 0,0 300.01,-578.58 307.15,-850.01 0,0 -229.71,-754.3 380.93,-1260.21 0,0 500.45,-446.28 428.96,-692.65 -41.54,-143.19 -256.06,-178.51 -404.99,-163.61 0,0 573.68,66.44 -304.9,587.88 0,0 -342.86,192.85 -392.86,371.42 0,0 -171.43,-1000.01 -771.44,-1150.01 l -21.43,200 c 0,0 -114.29,-428.57 -328.58,-464.29 l -7.14,178.57 c 0,0 -200,-414.26 -460.72,-478.56"
         style="fill:#231f20;fill-opacity:1;fill-rule:nonzero;stroke:none"
         transform="matrix(0.13333333,0,0,-0.13333333,0,978.36)" />
      <path
         id="path7"
         d="m 3399.8,5163.83 c 0,0 100,26.19 152.39,71.43 52.38,45.24 233.34,269.05 307.14,235.72 73.81,-33.34 138.1,-97.62 138.1,-97.62 0,0 -123.81,26.19 -159.52,0 -35.71,-26.19 -333.34,-300.01 -438.11,-209.53"
         style="fill:#bdbcbc;fill-opacity:1;fill-rule:nonzero;stroke:none"
         transform="matrix(0.13333333,0,0,-0.13333333,0,978.36)" />
      <path
         id="path8"
         d="m 3830.76,5166.21 c 0,0 -97.62,28.57 -359.52,-121.43 0,0 54.75,-83.33 130.95,-76.19 76.19,7.14 192.86,135.71 228.57,197.62"
         style="fill:#ffffff;fill-opacity:1;fill-rule:nonzero;stroke:none"
         transform="matrix(0.13333333,0,0,-0.13333333,0,978.36)" />
      <path
         id="path9"
         d="m 3749.16,5161.14 c -94.13,-19.16 -202.54,-73.88 -277.1,-116.55 2.26,-3.31 15.57,-22.2 36.45,-40.14 38.23,-32.84 72.02,-37.31 93.63,-35.29 33.24,3.12 79.1,30.87 129.12,78.12 45.54,43.03 82.22,90.38 98.62,118.56 -4.45,1.02 -29.6,5.71 -80.72,-4.7 z m -241.4,-157.57 c -23.01,19.76 -36.87,40.69 -37.01,40.9 l -0.33,0.51 0.53,0.3 c 74.71,42.79 183.62,97.83 278.15,117.03 56.63,11.51 81.58,4.53 81.83,4.45 l 0.7,-0.2 -0.36,-0.63 c -16.25,-28.17 -53.23,-76.04 -99.22,-119.48 -50.21,-47.44 -96.31,-75.3 -129.81,-78.44 -2.8,-0.26 -5.81,-0.41 -9,-0.41 -21.67,0 -51.89,7.13 -85.48,35.97"
         style="fill:#ffffff;fill-opacity:1;fill-rule:nonzero;stroke:none"
         transform="matrix(0.13333333,0,0,-0.13333333,0,978.36)" />
      <path
         id="path10"
         d="m 4430.77,4635.25 c 0,0 -371.44,-495.24 -502.38,-488.1 0,0 -250.01,211.91 -352.4,230.96 L 3676,4280.49 c 0,0 -265.48,95.21 -371.43,88.09 0,0 211.9,183.34 300,183.34 88.09,0 380.96,-240.48 826.2,83.33"
         style="fill:#bdbcbc;fill-opacity:1;fill-rule:nonzero;stroke:none"
         transform="matrix(0.13333333,0,0,-0.13333333,0,978.36)" />
      <path
         id="path11"
         d="m 4014.1,4556.68 c 0,0 190.48,166.67 190.48,254.76 L 4076,5075.73 4266.48,4801.92 c 0,0 -85.71,-200 -252.38,-245.24"
         style="fill:#bdbcbc;fill-opacity:1;fill-rule:nonzero;stroke:none"
         transform="matrix(0.13333333,0,0,-0.13333333,0,978.36)" />
      <path
         id="path12"
         d="m 4199.81,4601.92 114.29,209.52 c 0,0 -178.57,216.67 -166.67,347.63 l 147.63,-109.53 c 0,0 171.42,211.91 133.33,316.67 -38.1,104.77 -259.52,419.06 -259.52,419.06 0,0 345.24,-297.63 354.76,-483.34 0,0 -45.24,-197.63 -147.62,-316.67 0,0 -100.01,40.47 -145.24,76.19 0,0 78.57,-190.48 209.52,-207.15 l -240.48,-252.38"
         style="fill:#bdbcbc;fill-opacity:1;fill-rule:nonzero;stroke:none"
         transform="matrix(0.13333333,0,0,-0.13333333,0,978.36)" />
      <path
         id="path13"
         d="m 4277.2,4260.25 59.13,71.43 261.87,-417.86 c 0,0 8.45,-653.59 -316.78,-889.3 0,0 261.87,671.43 185.84,864.3 -76.02,192.85 -190.06,371.43 -190.06,371.43"
         style="fill:#bdbcbc;fill-opacity:1;fill-rule:nonzero;stroke:none"
         transform="matrix(0.13333333,0,0,-0.13333333,0,978.36)" />
      <path
         id="path14"
         d="m 4180.77,4181.67 139.29,-278.57 -32.15,-267.86 -164.29,475.01 57.15,71.42"
         style="fill:#bdbcbc;fill-opacity:1;fill-rule:nonzero;stroke:none"
         transform="matrix(0.13333333,0,0,-0.13333333,0,978.36)" />
      <path
         id="path15"
         d="m 4798.63,5049.54 c 0,0 -175,575.01 -642.86,857.16 0,0 -67.86,292.86 -142.86,346.43 l 110.71,21.43 c 0,0 335.72,-185.72 421.44,-300 l 42.86,-214.29 -350.01,289.29 c 0,0 514.3,-578.58 560.72,-1000.02"
         style="fill:#bdbcbc;fill-opacity:1;fill-rule:nonzero;stroke:none"
         transform="matrix(0.13333333,0,0,-0.13333333,0,978.36)" />
      <path
         id="path16"
         d="m 4109.33,5460.26 -32.13,171.43 c 0,0 -282.15,289.29 -160.72,571.44 0,0 14.29,-328.58 210.72,-542.86 l -17.87,-200.01"
         style="fill:#bdbcbc;fill-opacity:1;fill-rule:nonzero;stroke:none"
         transform="matrix(0.13333333,0,0,-0.13333333,0,978.36)" />
      <path
         id="path17"
         d="m 3792.46,4078.1 c 0,0 -15.93,-157.15 47.76,-289.29 63.7,-132.14 187.11,-314.29 187.11,-314.29 0,0 -27.87,-503.58 -175.16,-664.29 0,0 99.53,596.44 35.83,664.29 -63.69,67.86 -278.67,432.15 -278.67,432.15 0,0 115.45,142.86 183.13,171.43"
         style="fill:#bdbcbc;fill-opacity:1;fill-rule:nonzero;stroke:none"
         transform="matrix(0.13333333,0,0,-0.13333333,0,978.36)" />
      <path
         id="path18"
         d="m 3587.9,2670.93 c 0,0 114.29,407.15 60.72,546.45 0,0 -221.43,432.15 -214.29,650 l 128.57,-78.57 c 0,0 260.72,-353.58 260.72,-417.87 0,-64.27 -67.86,-539.28 -235.72,-700.01"
         style="fill:#bdbcbc;fill-opacity:1;fill-rule:nonzero;stroke:none"
         transform="matrix(0.13333333,0,0,-0.13333333,0,978.36)" />
      <path
         id="path19"
         d="m 3324.21,7025.16 -46.43,-246.43 228.58,332.15 c 0,0 203.57,-82.14 217.86,-160.72 0,0 -160.73,-625.01 -450.01,-867.86 l 125,303.57 c 0,0 -128.57,-167.83 -192.86,-235.7"
         style="fill:#bdbcbc;fill-opacity:1;fill-rule:nonzero;stroke:none"
         transform="matrix(0.13333333,0,0,-0.13333333,0,978.36)" />
      <path
         id="path20"
         d="m 3541.47,6288.84 314.29,596.44 c 0,0 175.01,-75 192.86,-150 0,0 -389.29,-267.86 -507.15,-446.44"
         style="fill:#bdbcbc;fill-opacity:1;fill-rule:nonzero;stroke:none"
         transform="matrix(0.13333333,0,0,-0.13333333,0,978.36)" />
      <path
         id="path21"
         d="m 4273.63,6503.13 -117.86,121.43 c 0,0 -428.57,-246.43 -625.01,-453.57 0,0 203.57,64.29 414.29,178.57 210.72,114.29 328.58,153.57 328.58,153.57"
         style="fill:#bdbcbc;fill-opacity:1;fill-rule:nonzero;stroke:none"
         transform="matrix(0.13333333,0,0,-0.13333333,0,978.36)" />
      <path
         id="path22"
         d="m 4309.34,6413.85 c 0,0 132.14,-92.86 142.87,-178.57 0,0 -203.58,117.85 -285.73,96.42 l 142.86,82.15"
         style="fill:#bdbcbc;fill-opacity:1;fill-rule:nonzero;stroke:none"
         transform="matrix(0.13333333,0,0,-0.13333333,0,978.36)" />
      <path
         id="path23"
         d="m 4280.77,5178.12 78.57,164.28 -107.14,142.87 c 0,0 -100,-164.3 -28.58,-275.01 l 57.15,114.29 c 0,0 -14.29,-100 0,-146.43"
         style="fill:#bdbcbc;fill-opacity:1;fill-rule:nonzero;stroke:none"
         transform="matrix(0.13333333,0,0,-0.13333333,0,978.36)" />
      <path
         id="path24"
         d="m 3822.45,4851.08 c -72.17,-32.84 -183.52,-42.71 -354.51,14.91 l -126.19,-169.04 150.93,126.34 c 0,0 207.53,-89.32 329.77,27.79"
         style="fill:#e9e9e9;fill-opacity:1;fill-rule:nonzero;stroke:none"
         transform="matrix(0.13333333,0,0,-0.13333333,0,978.36)" />
      <path
         id="path25"
         d="m 4073.01,4078.1 c 0,0 -112.62,-70.59 -196.59,-35.3 0,0 -27.8,-232.31 174.74,-476.55 0,0 147.73,-204.79 39.72,-541.73 0,0 220.2,188.29 75.35,601.3 -144.85,413.02 -93.22,452.28 -93.22,452.28"
         style="fill:#bdbcbc;fill-opacity:1;fill-rule:nonzero;stroke:none"
         transform="matrix(0.13333333,0,0,-0.13333333,0,978.36)" />
      <path
         id="path26"
         d="m 3541.47,7176.65 -107.31,-375.29 147.94,309.52 z"
         style="fill:#231f20;fill-opacity:1;fill-rule:nonzero;stroke:none"
         transform="matrix(0.13333333,0,0,-0.13333333,0,978.36)" />
      <path
         id="path27"
         d="m 4795.98,5050.58 c 0,0 -175,575.01 -642.86,857.16 0,0 -67.86,292.86 -142.86,346.43 l 110.72,21.43 c 0,0 335.72,-185.72 421.43,-300 l 42.86,-214.29 -350.01,289.29 c 0,0 514.3,-578.58 560.72,-1000.02"
         style="fill:#bdbcbc;fill-opacity:1;fill-rule:nonzero;stroke:none"
         transform="matrix(0.13333333,0,0,-0.13333333,0,978.36)" />
      <path
         id="path28"
         d="m 3321.56,7026.21 -46.43,-246.44 228.58,332.15 c 0,0 203.57,-82.14 217.86,-160.71 0,0 -160.72,-625.01 -450.01,-867.87 l 125,303.57 c 0,0 -128.57,-167.83 -192.86,-235.7"
         style="fill:#bdbcbc;fill-opacity:1;fill-rule:nonzero;stroke:none"
         transform="matrix(0.13333333,0,0,-0.13333333,0,978.36)" />
      <path
         id="path29"
         d="m 3538.83,6289.89 314.28,596.43 c 0,0 175,-75 192.87,-150 0,0 -389.29,-267.86 -507.15,-446.43"
         style="fill:#bdbcbc;fill-opacity:1;fill-rule:nonzero;stroke:none"
         transform="matrix(0.13333333,0,0,-0.13333333,0,978.36)" />
      <path
         id="path30"
         d="m 4270.98,6504.18 -117.86,121.43 c 0,0 -428.58,-246.44 -625.01,-453.58 0,0 203.58,64.29 414.29,178.57 210.72,114.29 328.58,153.58 328.58,153.58"
         style="fill:#bdbcbc;fill-opacity:1;fill-rule:nonzero;stroke:none"
         transform="matrix(0.13333333,0,0,-0.13333333,0,978.36)" />
      <path
         id="path31"
         d="m 4756.51,3908.58 c 0,0 185.55,-466.92 -38.26,-990.45 l 248.79,-82.63 c 0,0 125.72,725.71 -210.53,1073.08"
         style="fill:#bdbcbc;fill-opacity:1;fill-rule:nonzero;stroke:none"
         transform="matrix(0.13333333,0,0,-0.13333333,0,978.36)" />
      <path
         id="path32"
         d="m 3206.35,6154.68 c 64.29,67.88 192.86,235.7 192.86,235.7 l -125,-303.58 c 289.28,242.87 450.01,867.88 450.01,867.88 -14.29,78.57 -217.86,160.71 -217.86,160.71 l -228.58,-332.14 46.43,246.43"
         style="fill:#bdbcbc;fill-opacity:1;fill-rule:nonzero;stroke:none"
         transform="matrix(0.13333333,0,0,-0.13333333,0,978.36)" />
      <path
         id="path33"
         d="m 6165.29,3221.86 c 0,0 -4.23,-598.77 -549.35,-329.9 -545.13,268.86 -290.72,1181.26 -290.72,1181.26 0,0 369.26,-1066.99 840.07,-851.36"
         style="fill:#231f20;fill-opacity:1;fill-rule:nonzero;stroke:none"
         transform="matrix(0.13333333,0,0,-0.13333333,0,978.36)" />
      <path
         id="path34"
         d="m 5485.68,2867.55 c 0,0 -159.33,230.11 -255.62,517.12 0,0 86.84,-485.36 -107.75,-529.04 l 363.37,11.92"
         style="fill:#bdbcbc;fill-opacity:1;fill-rule:nonzero;stroke:none"
         transform="matrix(0.13333333,0,0,-0.13333333,0,978.36)" />
      <path
         id="path35"
         d="m 3751.73,5660.31 43.93,494.65 c 2.82,1.44 7.68,4.11 7.68,4.11 l -4.79,-193.3 c -10.71,-136.64 182.15,-338.02 228.58,-391.96 46.43,-53.93 14.28,-129.45 14.28,-129.45 0,0 -150,143.84 -185.71,147.43 -35.71,3.6 -378.58,-338.02 -378.58,-338.02 2.83,2.84 5.85,6.95 9.04,12.1 l 317.44,425.17 -51.87,-30.73"
         style="fill:#e9e9e9;fill-opacity:1;fill-rule:nonzero;stroke:none"
         transform="matrix(0.13333333,0,0,-0.13333333,0,978.36)" />
      <path
         id="path36"
         d="m 3570.98,7130.36 c 0,0 -93,-868.84 -342.34,-1100.85 l 229.14,1085.43 113.2,15.42"
         style="fill:#231f20;fill-opacity:1;fill-rule:nonzero;stroke:none"
         transform="matrix(0.13333333,0,0,-0.13333333,0,978.36)" />
      <path
         id="path37"
         d="m 3436.54,7014.32 c 0,0 -44.77,-814.02 -230.1,-921.25 l 3.71,921.25 189.66,116.04 c 0,0 53.04,-9.39 36.73,-116.04"
         style="fill:#bdbcbc;fill-opacity:1;fill-rule:nonzero;stroke:none"
         transform="matrix(0.13333333,0,0,-0.13333333,0,978.36)" />
      <path
         id="path38"
         d="m 3284.73,7076.96 c 0,0 -76.25,-304.8 -78.29,-532.15 v 553.99 l 78.29,-21.84"
         style="fill:#231f20;fill-opacity:1;fill-rule:nonzero;stroke:none"
         transform="matrix(0.13333333,0,0,-0.13333333,0,978.36)" />
      <path
         id="path39"
         d="m 3279.93,7057.02 126.06,71.14 c 0,0 32.62,-25.68 27.65,-157.58 -4.97,-131.9 54.6,218.57 54.6,218.57 h -116.16 l -92.15,-132.13"
         style="fill:#231f20;fill-opacity:1;fill-rule:nonzero;stroke:none"
         transform="matrix(0.13333333,0,0,-0.13333333,0,978.36)" />
      <path
         id="path40"
         d="m 4752.25,4019.94 c 0,0 -318.56,238.36 -310.14,313.23 8.41,74.87 131,224.31 131,224.31 0,0 -31.79,-325.41 179.14,-537.54"
         style="fill:#bdbcbc;fill-opacity:1;fill-rule:nonzero;stroke:none"
         transform="matrix(0.13333333,0,0,-0.13333333,0,978.36)" />
      <path
         id="path41"
         d="m 4873.22,4963.33 c 0,0 347.77,-1472.74 883.31,-2015.25 0,0 -506.44,526.85 -666.17,971.41 L 5144.48,3388 c 0,0 -280.07,685.08 -271.26,1575.33"
         style="fill:#bdbcbc;fill-opacity:1;fill-rule:nonzero;stroke:none"
         transform="matrix(0.13333333,0,0,-0.13333333,0,978.36)" />
      <path
         id="path42"
         d="m 4612.65,5098.68 c 0,0 184.7,-397.8 96.85,-644.21 0,0 -8.1,164.3 -45.41,277.73 l -166.37,-139.37 c 0,0 177.43,115.01 114.93,505.85"
         style="fill:#bdbcbc;fill-opacity:1;fill-rule:nonzero;stroke:none"
         transform="matrix(0.13333333,0,0,-0.13333333,0,978.36)" />
      <path
         id="path43"
         d="m 3570.05,4231.68 0.31,-0.19 c -3.92,-2.87 -7.95,-5.65 -12.08,-8.34 4.02,2.75 7.96,5.59 11.77,8.53"
         style="fill:#bdbcbc;fill-opacity:1;fill-rule:nonzero;stroke:none"
         transform="matrix(0.13333333,0,0,-0.13333333,0,978.36)" />
      <path
         id="path44"
         d="m 3457.43,4063.66 c 0,-17.86 -75,-92.86 -75,-92.86 l 121.44,14.29 -126.68,-17.71 c 0,0 68.52,68.57 74.42,90.12 4.27,3.73 5.82,6.16 5.82,6.16"
         style="fill:#bdbcbc;fill-opacity:1;fill-rule:nonzero;stroke:none"
         transform="matrix(0.13333333,0,0,-0.13333333,0,978.36)" />
      <path
         id="path45"
         d="m 3556.54,4222.01 c -1.22,-0.78 -2.42,-1.58 -3.66,-2.35 1.21,0.79 2.46,1.54 3.66,2.35"
         style="fill:#bdbcbc;fill-opacity:1;fill-rule:nonzero;stroke:none"
         transform="matrix(0.13333333,0,0,-0.13333333,0,978.36)" />
      <path
         id="path46"
         d="m 3213.35,4016.87 c -0.5,0.02 -0.97,0.03 -1.48,0.05 v 0.01 c 0.5,-0.02 0.98,-0.04 1.48,-0.06"
         style="fill:#bdbcbc;fill-opacity:1;fill-rule:nonzero;stroke:none"
         transform="matrix(0.13333333,0,0,-0.13333333,0,978.36)" />
      <path
         id="path47"
         d="m 3413.06,4036.72 c 1.41,0.51 2.74,1.03 4.07,1.54 -1.31,-0.51 -2.68,-1.03 -4.07,-1.54"
         style="fill:#bdbcbc;fill-opacity:1;fill-rule:nonzero;stroke:none"
         transform="matrix(0.13333333,0,0,-0.13333333,0,978.36)" />
      <path
         id="path48"
         d="m 3371.96,4025.61 c 16.18,3.22 29.47,6.95 40.3,10.82 -10.59,-3.84 -23.82,-7.59 -40.3,-10.82"
         style="fill:#bdbcbc;fill-opacity:1;fill-rule:nonzero;stroke:none"
         transform="matrix(0.13333333,0,0,-0.13333333,0,978.36)" />
      <path
         id="path49"
         d="m 3365,4024.32 c 1.61,0.29 3.27,0.56 4.82,0.86 -1.56,-0.3 -3.2,-0.57 -4.82,-0.86"
         style="fill:#bdbcbc;fill-opacity:1;fill-rule:nonzero;stroke:none"
         transform="matrix(0.13333333,0,0,-0.13333333,0,978.36)" />
      <path
         id="path50"
         d="m 3424.86,4302.13 3.52,0.04 -69.52,-26.98 -4.11,-0.27 70.11,27.21"
         style="fill:#ffffff;fill-opacity:1;fill-rule:nonzero;stroke:none"
         transform="matrix(0.13333333,0,0,-0.13333333,0,978.36)" />
      <path
         id="path51"
         d="m 3266.47,3881.67 c 0,0 0.03,-0.02 0.04,-0.02 l -0.4,-8.2 0.36,8.22"
         style="fill:#a7a5a6;fill-opacity:1;fill-rule:nonzero;stroke:none"
         transform="matrix(0.13333333,0,0,-0.13333333,0,978.36)" />
      <path
         id="path52"
         d="m 3373.4,2560.35 c 68.24,163.53 114.02,373.32 138.06,502.67 -22.97,-221.96 -79.62,-386.38 -138.06,-502.67"
         style="fill:#a7a5a6;fill-opacity:1;fill-rule:nonzero;stroke:none"
         transform="matrix(0.13333333,0,0,-0.13333333,0,978.36)" />
      <path
         id="path53"
         d="m 3215.88,2337.16 c -0.53,-0.49 -1.13,-1.06 -1.62,-1.51 l -0.03,0.67 c 0.55,0.29 1.11,0.54 1.65,0.84"
         style="fill:#a7a5a6;fill-opacity:1;fill-rule:nonzero;stroke:none"
         transform="matrix(0.13333333,0,0,-0.13333333,0,978.36)" />
      <path
         id="path54"
         d="m 3211.87,2853.08 50.29,938.42 -50.29,-1044.28 z"
         style="fill:#a7a5a6;fill-opacity:1;fill-rule:nonzero;stroke:none"
         transform="matrix(0.13333333,0,0,-0.13333333,0,978.36)" />
      <path
         id="path55"
         d="m 3213.47,2335.92 c 0.21,-0.13 0.42,-0.28 0.63,-0.42 -0.84,-0.78 -1.51,-1.38 -2.23,-2.02 v 1.63 c 0.53,0.28 1.07,0.54 1.6,0.81"
         style="fill:#a7a5a6;fill-opacity:1;fill-rule:nonzero;stroke:none"
         transform="matrix(0.13333333,0,0,-0.13333333,0,978.36)" />
      <path
         id="path56"
         d="m 3412.26,4036.43 c 0.27,0.1 0.53,0.19 0.8,0.29 -0.27,-0.1 -0.53,-0.19 -0.8,-0.29"
         style="fill:#bdbcbc;fill-opacity:1;fill-rule:nonzero;stroke:none"
         transform="matrix(0.13333333,0,0,-0.13333333,0,978.36)" />
      <path
         id="path57"
         d="m 3369.82,4025.18 c 0.74,0.14 1.42,0.29 2.14,0.43 -0.71,-0.14 -1.4,-0.29 -2.14,-0.43"
         style="fill:#bdbcbc;fill-opacity:1;fill-rule:nonzero;stroke:none"
         transform="matrix(0.13333333,0,0,-0.13333333,0,978.36)" />
      <path
         id="path58"
         d="m 3558.28,4223.15 c -0.57,-0.39 -1.16,-0.76 -1.74,-1.14 0.59,0.37 1.15,0.76 1.74,1.14"
         style="fill:#bdbcbc;fill-opacity:1;fill-rule:nonzero;stroke:none"
         transform="matrix(0.13333333,0,0,-0.13333333,0,978.36)" />
      <path
         id="path59"
         d="m 3365,4024.32 c -35.77,-6.42 -84.83,-10.18 -151.65,-7.45 67.5,-2.56 116.4,1.21 151.65,7.45"
         style="fill:#bdbcbc;fill-opacity:1;fill-rule:nonzero;stroke:none"
         transform="matrix(0.13333333,0,0,-0.13333333,0,978.36)" />
      <path
         id="path60"
         d="m 3452.19,4060.25 c 0,-0.78 -0.32,-1.78 -0.58,-2.75 -5.65,-4.93 -16.19,-12.17 -34.48,-19.24 27.97,11.01 35.06,21.99 35.06,21.99"
         style="fill:#bdbcbc;fill-opacity:1;fill-rule:nonzero;stroke:none"
         transform="matrix(0.13333333,0,0,-0.13333333,0,978.36)" />
      <path
         id="path61"
         d="m 3384.82,4158.67 c 12.54,2.5 19.75,4.21 19.75,4.21 l -0.93,1.41 c 1.09,0.36 2.2,0.7 3.29,1.07 51.01,10.96 103.29,27.94 145.95,54.3 -48.71,-31.62 -111.07,-50.42 -169.93,-61.5 0.62,0.16 1.24,0.34 1.87,0.51"
         style="fill:#bdbcbc;fill-opacity:1;fill-rule:nonzero;stroke:none"
         transform="matrix(0.13333333,0,0,-0.13333333,0,978.36)" />
      <path
         id="path62"
         d="m 3570.36,4231.49 c 1.64,1.2 3.33,2.36 4.93,3.6 l 117.86,-67.86 -189.28,-182.14 184.04,178.73 -117.55,67.67"
         style="fill:#bdbcbc;fill-opacity:1;fill-rule:nonzero;stroke:none"
         transform="matrix(0.13333333,0,0,-0.13333333,0,978.36)" />
      <path
         id="path63"
         d="m 3211.87,4138.14 c 20.58,0.77 40.46,2.17 59.17,3.96 37.99,1.8 76.24,6.62 111.91,16.06 58.86,11.08 121.22,29.88 169.93,61.5 1.24,0.77 2.44,1.57 3.66,2.35 0.58,0.38 1.17,0.75 1.74,1.14 4.13,2.69 8.16,5.47 12.08,8.34 l 117.55,-67.67 -184.04,-178.73 -121.44,-14.29 c 0,0 75,75 75,92.86 0,0 -1.55,-2.43 -5.82,-6.16 0.26,0.97 0.58,1.97 0.58,2.75 0,0 -7.09,-10.98 -35.06,-21.99 -1.33,-0.51 -2.66,-1.03 -4.07,-1.54 -0.27,-0.1 -0.53,-0.19 -0.8,-0.29 -10.83,-3.87 -24.12,-7.6 -40.3,-10.82 -0.72,-0.14 -1.4,-0.29 -2.14,-0.43 -1.55,-0.3 -3.21,-0.57 -4.82,-0.86 -35.25,-6.24 -84.15,-10.01 -151.65,-7.45 -0.5,0.02 -0.98,0.04 -1.48,0.06 v 121.21"
         style="fill:#bdbcbc;fill-opacity:1;fill-rule:nonzero;stroke:none"
         transform="matrix(0.13333333,0,0,-0.13333333,0,978.36)" />
      <path
         id="path64"
         d="m 3404.57,4162.88 c 0,0 -7.21,-1.71 -19.75,-4.21 6.37,1.72 12.64,3.6 18.82,5.62 l 0.93,-1.41"
         style="fill:#bdbcbc;fill-opacity:1;fill-rule:nonzero;stroke:none"
         transform="matrix(0.13333333,0,0,-0.13333333,0,978.36)" />
      <path
         id="path65"
         d="m 3271.04,4142.1 c -18.71,-1.79 -38.59,-3.19 -59.17,-3.96 v 3.34 c 19.36,-0.49 39.23,-0.33 59.17,0.62"
         style="fill:#bdbcbc;fill-opacity:1;fill-rule:nonzero;stroke:none"
         transform="matrix(0.13333333,0,0,-0.13333333,0,978.36)" />
      <path
         id="path66"
         d="m 3211.87,4303.59 222.65,2.29 -9.66,-3.75 -212.99,-2.19 v 3.65"
         style="fill:#ffffff;fill-opacity:1;fill-rule:nonzero;stroke:none"
         transform="matrix(0.13333333,0,0,-0.13333333,0,978.36)" />
      <path
         id="path67"
         d="m 3368.86,4217.64 72.61,59.53 -92.86,-5.96 10.25,3.98 88.76,5.69 -72.63,-59.53 35.71,-54.76 c -1.24,-0.44 -2.52,-0.81 -3.77,-1.23 -1.17,-0.25 -2.33,-0.49 -3.49,-0.74 l -34.58,53.02"
         style="fill:#ffffff;fill-opacity:1;fill-rule:nonzero;stroke:none"
         transform="matrix(0.13333333,0,0,-0.13333333,0,978.36)" />
      <path
         id="path68"
         d="m 3441.47,4277.17 -72.61,-59.53 34.58,-53.02 c -82.84,-17.36 -161.58,-18.97 -189.16,-18.92 v 0.42 c 0,0 -0.9,-0.02 -2.41,-0.05 v 153.87 l 212.99,2.19 -70.11,-27.21 4.11,0.27 -10.25,-3.98 92.86,5.96"
         style="fill:#ffffff;fill-opacity:1;fill-rule:nonzero;stroke:none"
         transform="matrix(0.13333333,0,0,-0.13333333,0,978.36)" />
      <path
         id="path69"
         d="m 3384.82,4158.67 c -0.63,-0.17 -1.25,-0.35 -1.87,-0.51 -4.24,-0.8 -8.44,-1.54 -12.63,-2.26 5.42,1 10.26,1.93 14.5,2.77"
         style="fill:#ffffff;fill-opacity:1;fill-rule:nonzero;stroke:none"
         transform="matrix(0.13333333,0,0,-0.13333333,0,978.36)" />
      <path
         id="path70"
         d="m 3403.44,4164.62 c 1.16,0.25 2.32,0.49 3.49,0.74 -1.09,-0.37 -2.2,-0.71 -3.29,-1.07 l -0.2,0.33"
         style="fill:#ffffff;fill-opacity:1;fill-rule:nonzero;stroke:none"
         transform="matrix(0.13333333,0,0,-0.13333333,0,978.36)" />
      <path
         id="path71"
         d="m 3382.95,4158.16 c -35.67,-9.44 -73.92,-14.26 -111.91,-16.06 40.51,3.85 75.35,9.39 99.28,13.8 4.19,0.72 8.39,1.46 12.63,2.26"
         style="fill:#ffffff;fill-opacity:1;fill-rule:nonzero;stroke:none"
         transform="matrix(0.13333333,0,0,-0.13333333,0,978.36)" />
      <path
         id="path72"
         d="m 3211.87,4142.29 v 3.78 c 1.51,0.03 2.41,0.05 2.41,0.05 v -0.42 c 27.58,-0.05 106.32,1.56 189.16,18.92 l 0.2,-0.33 c -6.18,-2.02 -12.45,-3.9 -18.82,-5.62 -4.24,-0.84 -9.08,-1.77 -14.5,-2.77 -69.57,-11.96 -132.14,-13.55 -158.45,-13.61"
         style="fill:#ffffff;fill-opacity:1;fill-rule:nonzero;stroke:none"
         transform="matrix(0.13333333,0,0,-0.13333333,0,978.36)" />
      <path
         id="path73"
         d="m 3211.87,4141.48 v 0.81 c 26.31,0.06 88.88,1.65 158.45,13.61 -23.93,-4.41 -58.77,-9.95 -99.28,-13.8 -19.94,-0.95 -39.81,-1.11 -59.17,-0.62"
         style="fill:#ffffff;fill-opacity:1;fill-rule:nonzero;stroke:none"
         transform="matrix(0.13333333,0,0,-0.13333333,0,978.36)" />
      <path
         id="path74"
         d="m 3214.28,2335.38 c -0.06,0.04 -0.12,0.08 -0.18,0.12 0.05,0.04 0.11,0.1 0.16,0.15 l 0.02,-0.27"
         style="fill:#a7a5a6;fill-opacity:1;fill-rule:nonzero;stroke:none"
         transform="matrix(0.13333333,0,0,-0.13333333,0,978.36)" />
      <path
         id="path75"
         d="m 3331.14,3788.94 31.76,10.59 c -0.08,0.32 -0.2,0.63 -0.28,0.95 l 0.37,0.12 c -10.72,42.86 -96.43,82.15 -96.43,82.15 0,0 93.55,-39.63 104.27,-82.49 l -32.15,-10.71 192.86,-607.15 -48.17,127.31 -152.23,479.23"
         style="fill:#a7a5a6;fill-opacity:1;fill-rule:nonzero;stroke:none"
         transform="matrix(0.13333333,0,0,-0.13333333,0,978.36)" />
      <path
         id="path76"
         d="m 3362.99,3800.6 -0.37,-0.12 c 0.08,-0.32 0.2,-0.63 0.28,-0.95 l -31.76,-10.59 152.23,-479.23 -216.81,573.04 c 0,0 85.71,-39.29 96.43,-82.15"
         style="fill:#a7a5a6;fill-opacity:1;fill-rule:nonzero;stroke:none"
         transform="matrix(0.13333333,0,0,-0.13333333,0,978.36)" />
      <path
         id="path77"
         d="m 3214.23,2336.32 0.03,-0.67 c -0.05,-0.05 -0.11,-0.11 -0.16,-0.15 -0.21,0.14 -0.42,0.29 -0.63,0.42 0.25,0.14 0.51,0.26 0.76,0.4"
         style="fill:#a7a5a6;fill-opacity:1;fill-rule:nonzero;stroke:none"
         transform="matrix(0.13333333,0,0,-0.13333333,0,978.36)" />
      <path
         id="path78"
         d="m 3262.16,3791.5 3.95,81.95 -1.99,-45.37 z"
         style="fill:#a7a5a6;fill-opacity:1;fill-rule:nonzero;stroke:none"
         transform="matrix(0.13333333,0,0,-0.13333333,0,978.36)" />
      <path
         id="path79"
         d="m 3226.55,2347.5 c 31.83,26.66 61.08,64.72 87.76,110.14 19.05,28.85 39.16,63.04 59.09,102.71 -43.37,-103.96 -95.81,-189.2 -157.52,-223.19 2.97,2.76 6.49,6.14 10.67,10.34"
         style="fill:#a7a5a6;fill-opacity:1;fill-rule:nonzero;stroke:none"
         transform="matrix(0.13333333,0,0,-0.13333333,0,978.36)" />
      <path
         id="path80"
         d="m 3266.51,3881.65 0.05,1.1 -0.04,-1.1 z"
         style="fill:#a7a5a6;fill-opacity:1;fill-rule:nonzero;stroke:none"
         transform="matrix(0.13333333,0,0,-0.13333333,0,978.36)" />
      <path
         id="path81"
         d="m 3531.54,3182.4 c 0,0 -6.65,-47.16 -20.08,-119.38 0.4,3.85 0.88,7.56 1.25,11.44 12.62,65.77 18.83,107.94 18.83,107.94"
         style="fill:#a7a5a6;fill-opacity:1;fill-rule:nonzero;stroke:none"
         transform="matrix(0.13333333,0,0,-0.13333333,0,978.36)" />
      <path
         id="path82"
         d="m 3265.31,3850.11 -1.19,-22.03 1.99,45.37 0.4,8.2 h 0.01 l -1.21,-31.54"
         style="fill:#a7a5a6;fill-opacity:1;fill-rule:nonzero;stroke:none"
         transform="matrix(0.13333333,0,0,-0.13333333,0,978.36)" />
      <path
         id="path83"
         d="m 3512.71,3074.46 c -0.37,-3.88 -0.85,-7.59 -1.25,-11.44 -24.04,-129.35 -69.82,-339.14 -138.06,-502.67 -19.93,-39.67 -40.04,-73.86 -59.09,-102.71 103.49,176.08 168.72,461.96 198.4,616.82"
         style="fill:#a7a5a6;fill-opacity:1;fill-rule:nonzero;stroke:none"
         transform="matrix(0.13333333,0,0,-0.13333333,0,978.36)" />
      <path
         id="path84"
         d="m 3214.17,2337.73 c 4.17,3.04 8.29,6.34 12.38,9.77 -4.18,-4.2 -7.7,-7.58 -10.67,-10.34 -0.54,-0.3 -1.1,-0.55 -1.65,-0.84 l -0.06,1.41"
         style="fill:#a7a5a6;fill-opacity:1;fill-rule:nonzero;stroke:none"
         transform="matrix(0.13333333,0,0,-0.13333333,0,978.36)" />
      <path
         id="path85"
         d="m 3211.87,2634.52 v 112.7 l 50.29,1044.28 1.96,36.58 -52.25,-1193.56"
         style="fill:#a7a5a6;fill-opacity:1;fill-rule:nonzero;stroke:none"
         transform="matrix(0.13333333,0,0,-0.13333333,0,978.36)" />
      <path
         id="path86"
         d="m 3212.55,2336.55 c 0.31,-0.21 0.61,-0.41 0.92,-0.63 -0.53,-0.27 -1.07,-0.53 -1.6,-0.81 v 0.97 c 0.23,0.17 0.46,0.31 0.68,0.47"
         style="fill:#a7a5a6;fill-opacity:1;fill-rule:nonzero;stroke:none"
         transform="matrix(0.13333333,0,0,-0.13333333,0,978.36)" />
      <path
         id="path87"
         d="m 3211.87,2634.52 52.25,1193.56 1.19,22.03 -53.44,-1391.4 v 175.81"
         style="fill:#a7a5a6;fill-opacity:1;fill-rule:nonzero;stroke:none"
         transform="matrix(0.13333333,0,0,-0.13333333,0,978.36)" />
      <path
         id="path88"
         d="m 3226.55,2347.5 c 19.65,19.72 51.75,55.59 87.76,110.14 -26.68,-45.42 -55.93,-83.48 -87.76,-110.14"
         style="fill:#a7a5a6;fill-opacity:1;fill-rule:nonzero;stroke:none"
         transform="matrix(0.13333333,0,0,-0.13333333,0,978.36)" />
      <path
         id="path89"
         d="m 3266.52,3881.65 0.04,1.1 c 0.14,-0.42 0.28,-0.88 0.42,-1.32 -0.27,0.13 -0.43,0.2 -0.46,0.22"
         style="fill:#a7a5a6;fill-opacity:1;fill-rule:nonzero;stroke:none"
         transform="matrix(0.13333333,0,0,-0.13333333,0,978.36)" />
      <path
         id="path90"
         d="m 3518.46,3149.49 c 3.43,20.51 5.15,32.17 5.15,32.17 l -0.05,0.15 c 0.09,0.6 0.14,0.92 0.14,0.92 l -3.02,9.5 v 0 0 l -37.31,117.48 48.17,-127.31 c 0,0 -6.21,-42.17 -18.83,-107.94 2.37,24.28 4.23,49.38 5.75,75.03"
         style="fill:#a7a5a6;fill-opacity:1;fill-rule:nonzero;stroke:none"
         transform="matrix(0.13333333,0,0,-0.13333333,0,978.36)" />
      <path
         id="path91"
         d="m 3520.68,3192.23 -253.7,689.2 c -0.14,0.44 -0.28,0.9 -0.42,1.32 l 216.81,-573.04 37.31,-117.48"
         style="fill:#a7a5a6;fill-opacity:1;fill-rule:nonzero;stroke:none"
         transform="matrix(0.13333333,0,0,-0.13333333,0,978.36)" />
      <path
         id="path92"
         d="m 3523.7,3182.73 c 0,0 -0.05,-0.32 -0.14,-0.92 l 0.05,-0.15 c 0,0 -1.72,-11.66 -5.15,-32.17 0.83,14.11 1.68,28.21 2.22,42.74 l 3.02,-9.5"
         style="fill:#a7a5a6;fill-opacity:1;fill-rule:nonzero;stroke:none"
         transform="matrix(0.13333333,0,0,-0.13333333,0,978.36)" />
      <path
         id="path93"
         d="m 3266.52,3881.65 c 0.03,-0.02 0.19,-0.09 0.46,-0.22 l -1.67,-31.32 1.21,31.54"
         style="fill:#a7a5a6;fill-opacity:1;fill-rule:nonzero;stroke:none"
         transform="matrix(0.13333333,0,0,-0.13333333,0,978.36)" />
      <path
         id="path94"
         d="m 3520.68,3192.23 v 0 0 z"
         style="fill:#a7a5a6;fill-opacity:1;fill-rule:nonzero;stroke:none"
         transform="matrix(0.13333333,0,0,-0.13333333,0,978.36)" />
      <path
         id="path95"
         d="m 3211.87,2336.08 v 5.26 c 184.5,143.43 283.75,672.1 306.59,808.15 -1.52,-25.65 -3.38,-50.75 -5.75,-75.03 -29.68,-154.86 -94.91,-440.74 -198.4,-616.82 -36.01,-54.55 -68.11,-90.42 -87.76,-110.14 -4.09,-3.43 -8.21,-6.73 -12.38,-9.77 l 0.06,-1.41 c -0.25,-0.14 -0.51,-0.26 -0.76,-0.4 -0.31,0.22 -0.61,0.42 -0.92,0.63 -0.22,-0.16 -0.45,-0.3 -0.68,-0.47"
         style="fill:#a7a5a6;fill-opacity:1;fill-rule:nonzero;stroke:none"
         transform="matrix(0.13333333,0,0,-0.13333333,0,978.36)" />
      <path
         id="path96"
         d="m 3211.87,2341.34 v 117.37 l 53.44,1391.4 1.67,31.32 253.7,-689.2 v 0 c -0.54,-14.53 -1.39,-28.63 -2.22,-42.74 -22.84,-136.05 -122.09,-664.72 -306.59,-808.15"
         style="fill:#a7a5a6;fill-opacity:1;fill-rule:nonzero;stroke:none"
         transform="matrix(0.13333333,0,0,-0.13333333,0,978.36)" />
      <path
         id="path97"
         d="m 3314.44,5039.98 c 17.97,9.25 30.61,16.71 30.61,16.71 11.9,-47.63 -57.15,-192.86 -57.15,-192.86 52.38,30.95 83.33,114.28 83.33,114.28 28.57,-2.38 33.34,-59.52 30.96,-83.33 -2.39,-23.81 -64.29,-197.62 -64.29,-197.62 l 126.19,169.05 c 430.96,-145.24 483.34,138.09 483.34,138.09 -235.71,-202.38 -473.82,-59.52 -473.82,-59.52 173.82,-14.28 466.68,164.29 500.01,190.48 33.33,26.19 50,-9.53 50,-9.53 -45.23,-80.95 -21.42,-147.62 -21.42,-147.62 l 16.67,69.05 c 73.8,-50 147.61,-228.57 147.61,-228.57 -28.57,-142.86 -302.38,-245.24 -333.34,-245.24 -30.94,0 -288.09,185.71 -326.19,178.57 -38.09,-7.14 -97.63,-85.72 -97.63,-85.72 l 52.39,28.58 c 26.19,-14.29 35.72,-52.39 26.19,-95.24 -9.52,-42.86 -126.19,-38.1 -159.52,-85.72 -9.5,-13.57 -24.13,-25.4 -40.19,-35.37 -1.61,-1.82 -3.28,-3.56 -5.05,-5.1 -24,-21 -48.68,-28.7 -71.27,-29.5 v 567.01 c 41.82,3.86 78.4,17.65 102.57,29.12"
         style="fill:#ffffff;fill-opacity:1;fill-rule:nonzero;stroke:none"
         transform="matrix(0.13333333,0,0,-0.13333333,0,978.36)" />
      <path
         id="path98"
         d="m 3280.69,5115.32 c 0,0 4.4,6.89 12.21,19.16 -3.17,-7.56 -7.15,-14.1 -12.21,-19.16"
         style="fill:#ffffff;fill-opacity:1;fill-rule:nonzero;stroke:none"
         transform="matrix(0.13333333,0,0,-0.13333333,0,978.36)" />
      <path
         id="path99"
         d="m 3214.62,5894.8 v -0.28 c 97.85,13.89 587.51,263.68 587.51,263.68 l -3.58,-196.44 c -10.71,-135.71 182.15,-335.71 228.58,-389.29 46.43,-53.57 14.28,-128.57 14.28,-128.57 0,0 -150,142.86 -185.71,146.43 -35.72,3.57 -378.58,-335.72 -378.58,-335.72 46.43,46.43 146.43,425.01 146.43,425.01 -56.21,-112.43 -288.47,-478.84 -342.86,-564.3 28.15,67.25 0,239.3 0,239.3 -8.05,-110.02 -46.34,-185.75 -64.88,-216.61 v -0.08 l -0.03,0.03 c -1.44,-2.39 -2.73,-4.46 -3.91,-6.31 v 763.17 c 0.96,-0.03 1.91,-0.06 2.75,-0.02"
         style="fill:#ffffff;fill-opacity:1;fill-rule:nonzero;stroke:none"
         transform="matrix(0.13333333,0,0,-0.13333333,0,978.36)" />
      <path
         id="path100"
         d="m 3198.61,2331.67 0.05,0.93 c 0.25,-0.13 0.5,-0.25 0.76,-0.39 -0.27,-0.18 -0.53,-0.37 -0.81,-0.54"
         style="fill:#a7a5a6;fill-opacity:1;fill-rule:nonzero;stroke:none"
         transform="matrix(0.13333333,0,0,-0.13333333,0,978.36)" />
      <path
         id="path101"
         d="m 3206.18,2332.7 c 0.1,-0.09 0.36,-0.3 0.36,-0.3 1.79,0.82 3.55,1.81 5.33,2.71 v -1.63 c -3.46,-3.1 -5.52,-4.79 -5.52,-4.79 l -0.17,4.01"
         style="fill:#a7a5a6;fill-opacity:1;fill-rule:nonzero;stroke:none"
         transform="matrix(0.13333333,0,0,-0.13333333,0,978.36)" />
      <path
         id="path102"
         d="m 3206.35,2328.69 c -2.33,1.07 -4.63,2.31 -6.93,3.52 0.31,0.22 0.61,0.42 0.91,0.63 2,-1.43 4,-2.81 6.02,-4.15"
         style="fill:#a7a5a6;fill-opacity:1;fill-rule:nonzero;stroke:none"
         transform="matrix(0.13333333,0,0,-0.13333333,0,978.36)" />
      <path
         id="path103"
         d="m 3209.52,2698.27 -2.98,55.41 5.33,99.4 v -105.86 l -2.35,-48.95"
         style="fill:#a7a5a6;fill-opacity:1;fill-rule:nonzero;stroke:none"
         transform="matrix(0.13333333,0,0,-0.13333333,0,978.36)" />
      <path
         id="path104"
         d="m 3206.76,2337.4 -0.22,-5 c 0,0 -0.26,0.21 -0.36,0.3 l -0.19,4.11 c 0.26,0.19 0.51,0.4 0.77,0.59"
         style="fill:#a7a5a6;fill-opacity:1;fill-rule:nonzero;stroke:none"
         transform="matrix(0.13333333,0,0,-0.13333333,0,978.36)" />
      <path
         id="path105"
         d="m 3211.87,2335.11 c -1.78,-0.9 -3.54,-1.89 -5.33,-2.71 1.78,1.18 3.56,2.42 5.33,3.68 v -0.97"
         style="fill:#a7a5a6;fill-opacity:1;fill-rule:nonzero;stroke:none"
         transform="matrix(0.13333333,0,0,-0.13333333,0,978.36)" />
      <path
         id="path106"
         d="m 3210.47,2422.26 -3.94,90.15 5.34,122.11 v -175.81 l -1.4,-36.45"
         style="fill:#a7a5a6;fill-opacity:1;fill-rule:nonzero;stroke:none"
         transform="matrix(0.13333333,0,0,-0.13333333,0,978.36)" />
      <path
         id="path107"
         d="m 3211.87,2341.34 v -5.26 c -1.77,-1.26 -3.55,-2.5 -5.33,-3.68 l 0.22,5 c 1.72,1.26 3.41,2.62 5.11,3.94"
         style="fill:#a7a5a6;fill-opacity:1;fill-rule:nonzero;stroke:none"
         transform="matrix(0.13333333,0,0,-0.13333333,0,978.36)" />
      <path
         id="path108"
         d="m 3174.56,4340.26 v 553.99"
         style="fill:#231f20;fill-opacity:1;fill-rule:nonzero;stroke:none"
         transform="matrix(0.13333333,0,0,-0.13333333,0,978.36)" />
      <path
         id="path109"
         d="m 507.715,2858.68 c 0,0 617.005,1075.98 825.035,2053.97 208.03,978 561.59,910.02 561.59,910.02 l 781.81,-2825.72 c 0,0 -1488.54,-758.22 -2168.435,-138.27"
         style="fill:#231f20;fill-opacity:1;fill-rule:nonzero;stroke:none"
         transform="matrix(0.13333333,0,0,-0.13333333,0,978.36)" />
      <path
         id="path110"
         d="m 1750.51,3508.67 -47.66,-515.27 c 0,0 -375.28,252.23 -396.13,450.77 -20.85,198.53 530.92,705.1 530.92,705.1 l -87.13,-640.6"
         style="fill:#231f20;fill-opacity:1;fill-rule:nonzero;stroke:none"
         transform="matrix(0.13333333,0,0,-0.13333333,0,978.36)" />
      <path
         id="path111"
         d="m 3206.76,7256.73 c 0,0 -453.58,92.84 -653.58,-200.02 0,0 -350,-71.42 -528.58,-407.15 0,0 -264.28,-178.57 -271.43,-314.28 l 7.15,-150.01 -135.72,-200 7.14,-300 c 0,0 -300,-578.58 -307.15,-850.01 0,0 229.71,-754.3 -380.922,-1260.21 0,0 -500.453,-446.28 -428.969,-692.65 41.543,-143.19 256.067,-178.51 404.989,-163.61 0,0 -573.68,66.44 304.902,587.88 0,0 342.86,192.85 392.86,371.42 0,0 171.44,-1000.01 771.45,-1150.01 l 21.42,200 c 0,0 114.29,-428.57 328.58,-464.29 l 7.14,178.57 c 0,0 200,-414.26 460.72,-478.56"
         style="fill:#231f20;fill-opacity:1;fill-rule:nonzero;stroke:none"
         transform="matrix(0.13333333,0,0,-0.13333333,0,978.36)" />
      <path
         id="path112"
         d="m 3005.57,5163.83 c 0,0 -100.01,26.19 -152.38,71.43 -52.39,45.24 -233.34,269.05 -307.15,235.72 -73.81,-33.34 -138.1,-97.62 -138.1,-97.62 0,0 123.81,26.19 159.53,0 35.71,-26.19 333.33,-300.01 438.1,-209.53"
         style="fill:#bdbcbc;fill-opacity:1;fill-rule:nonzero;stroke:none"
         transform="matrix(0.13333333,0,0,-0.13333333,0,978.36)" />
      <path
         id="path113"
         d="m 2574.61,5166.21 c 0,0 97.62,28.57 359.53,-121.43 0,0 -54.76,-83.33 -130.95,-76.19 -76.19,7.14 -192.86,135.71 -228.58,197.62"
         style="fill:#ffffff;fill-opacity:1;fill-rule:nonzero;stroke:none"
         transform="matrix(0.13333333,0,0,-0.13333333,0,978.36)" />
      <path
         id="path114"
         d="m 2575.49,5165.84 c 16.4,-28.18 53.08,-75.53 98.62,-118.56 50.02,-47.25 95.88,-75 129.13,-78.12 21.61,-2.02 55.4,2.45 93.62,35.29 20.89,17.94 34.19,36.83 36.45,40.14 -74.56,42.67 -182.97,97.39 -277.1,116.55 -51.12,10.41 -76.27,5.72 -80.72,4.7 z m 236.65,-198.24 c -3.2,0 -6.2,0.15 -9.01,0.41 -33.5,3.14 -79.6,31 -129.81,78.44 -45.98,43.44 -82.96,91.31 -99.21,119.48 l -0.37,0.63 0.71,0.2 c 0.25,0.08 25.2,7.06 81.82,-4.45 94.54,-19.2 203.45,-74.24 278.16,-117.03 l 0.53,-0.3 -0.34,-0.51 c -0.13,-0.21 -14,-21.14 -37.01,-40.9 -33.58,-28.84 -63.81,-35.97 -85.47,-35.97"
         style="fill:#ffffff;fill-opacity:1;fill-rule:nonzero;stroke:none"
         transform="matrix(0.13333333,0,0,-0.13333333,0,978.36)" />
      <path
         id="path115"
         d="m 1974.6,4635.25 c 0,0 371.43,-495.24 502.39,-488.1 0,0 250.01,211.91 352.38,230.96 l -100,-97.62 c 0,0 265.48,95.21 371.44,88.09 0,0 -211.91,183.34 -300.01,183.34 -88.09,0 -380.95,-240.48 -826.2,83.33"
         style="fill:#bdbcbc;fill-opacity:1;fill-rule:nonzero;stroke:none"
         transform="matrix(0.13333333,0,0,-0.13333333,0,978.36)" />
      <path
         id="path116"
         d="m 2391.27,4556.68 c 0,0 -190.48,166.67 -190.48,254.76 l 128.58,264.29 -190.48,-273.81 c 0,0 85.72,-200 252.38,-245.24"
         style="fill:#bdbcbc;fill-opacity:1;fill-rule:nonzero;stroke:none"
         transform="matrix(0.13333333,0,0,-0.13333333,0,978.36)" />
      <path
         id="path117"
         d="m 2205.56,4601.92 -114.29,209.52 c 0,0 178.57,216.67 166.67,347.63 l -147.62,-109.53 c 0,0 -171.43,211.91 -133.34,316.67 38.1,104.77 259.53,419.06 259.53,419.06 0,0 -345.24,-297.63 -354.77,-483.34 0,0 45.24,-197.63 147.62,-316.67 0,0 100.01,40.47 145.24,76.19 0,0 -78.57,-190.48 -209.52,-207.15 l 240.48,-252.38"
         style="fill:#bdbcbc;fill-opacity:1;fill-rule:nonzero;stroke:none"
         transform="matrix(0.13333333,0,0,-0.13333333,0,978.36)" />
      <path
         id="path118"
         d="m 2128.18,4260.25 -59.13,71.43 -261.87,-417.86 c 0,0 -8.45,-653.59 316.77,-889.3 0,0 -261.87,671.43 -185.84,864.3 76.02,192.85 190.07,371.43 190.07,371.43"
         style="fill:#bdbcbc;fill-opacity:1;fill-rule:nonzero;stroke:none"
         transform="matrix(0.13333333,0,0,-0.13333333,0,978.36)" />
      <path
         id="path119"
         d="m 2224.61,4181.67 -139.29,-278.57 32.14,-267.86 164.29,475.01 -57.14,71.42"
         style="fill:#bdbcbc;fill-opacity:1;fill-rule:nonzero;stroke:none"
         transform="matrix(0.13333333,0,0,-0.13333333,0,978.36)" />
      <path
         id="path120"
         d="m 1606.74,5049.54 c 0,0 175,575.01 642.87,857.16 0,0 67.85,292.86 142.85,346.43 l -110.71,21.43 c 0,0 -335.72,-185.72 -421.43,-300 l -42.86,-214.29 350,289.29 c 0,0 -514.29,-578.58 -560.72,-1000.02"
         style="fill:#bdbcbc;fill-opacity:1;fill-rule:nonzero;stroke:none"
         transform="matrix(0.13333333,0,0,-0.13333333,0,978.36)" />
      <path
         id="path121"
         d="m 2296.03,5460.26 32.15,171.43 c 0,0 282.15,289.29 160.72,571.44 0,0 -14.29,-328.58 -210.72,-542.86 l 17.85,-200.01"
         style="fill:#bdbcbc;fill-opacity:1;fill-rule:nonzero;stroke:none"
         transform="matrix(0.13333333,0,0,-0.13333333,0,978.36)" />
      <path
         id="path122"
         d="m 2612.92,4078.1 c 0,0 15.92,-157.15 -47.78,-289.29 -63.69,-132.14 -187.1,-314.29 -187.1,-314.29 0,0 27.87,-503.58 175.16,-664.29 0,0 -99.52,596.44 -35.82,664.29 63.69,67.86 278.66,432.15 278.66,432.15 0,0 -115.45,142.86 -183.12,171.43"
         style="fill:#bdbcbc;fill-opacity:1;fill-rule:nonzero;stroke:none"
         transform="matrix(0.13333333,0,0,-0.13333333,0,978.36)" />
      <path
         id="path123"
         d="m 2817.47,2670.93 c 0,0 -114.29,407.15 -60.71,546.45 0,0 221.43,432.15 214.28,650 l -128.57,-78.57 c 0,0 -260.72,-353.58 -260.72,-417.87 0,-64.27 67.86,-539.28 235.72,-700.01"
         style="fill:#bdbcbc;fill-opacity:1;fill-rule:nonzero;stroke:none"
         transform="matrix(0.13333333,0,0,-0.13333333,0,978.36)" />
      <path
         id="path124"
         d="m 3081.17,7025.16 46.43,-246.43 -228.58,332.15 c 0,0 -203.57,-82.14 -217.86,-160.72 0,0 160.71,-625.01 450.01,-867.86 l -125,303.57 c 0,0 128.56,-167.83 192.85,-235.7"
         style="fill:#bdbcbc;fill-opacity:1;fill-rule:nonzero;stroke:none"
         transform="matrix(0.13333333,0,0,-0.13333333,0,978.36)" />
      <path
         id="path125"
         d="m 2863.9,6288.84 -314.29,596.44 c 0,0 -175,-75 -192.86,-150 0,0 389.29,-267.86 507.15,-446.44"
         style="fill:#bdbcbc;fill-opacity:1;fill-rule:nonzero;stroke:none"
         transform="matrix(0.13333333,0,0,-0.13333333,0,978.36)" />
      <path
         id="path126"
         d="m 2131.75,6503.13 117.86,121.43 c 0,0 428.57,-246.43 625,-453.57 0,0 -203.57,64.29 -414.29,178.57 -210.71,114.29 -328.57,153.57 -328.57,153.57"
         style="fill:#bdbcbc;fill-opacity:1;fill-rule:nonzero;stroke:none"
         transform="matrix(0.13333333,0,0,-0.13333333,0,978.36)" />
      <path
         id="path127"
         d="m 2096.03,6413.85 c 0,0 -132.14,-92.86 -142.86,-178.57 0,0 203.58,117.85 285.72,96.42 l -142.86,82.15"
         style="fill:#bdbcbc;fill-opacity:1;fill-rule:nonzero;stroke:none"
         transform="matrix(0.13333333,0,0,-0.13333333,0,978.36)" />
      <path
         id="path128"
         d="m 2124.6,5178.12 -78.57,164.28 107.15,142.87 c 0,0 100,-164.3 28.57,-275.01 l -57.15,114.29 c 0,0 14.29,-100 0,-146.43"
         style="fill:#bdbcbc;fill-opacity:1;fill-rule:nonzero;stroke:none"
         transform="matrix(0.13333333,0,0,-0.13333333,0,978.36)" />
      <path
         id="path129"
         d="m 2582.92,4851.08 c 72.17,-32.84 183.52,-42.71 354.51,14.91 l 126.2,-169.04 -150.94,126.34 c 0,0 -207.53,-89.32 -329.77,27.79"
         style="fill:#e9e9e9;fill-opacity:1;fill-rule:nonzero;stroke:none"
         transform="matrix(0.13333333,0,0,-0.13333333,0,978.36)" />
      <path
         id="path130"
         d="m 2332.37,4078.1 c 0,0 112.61,-70.59 196.58,-35.3 0,0 27.8,-232.31 -174.74,-476.55 0,0 -147.73,-204.79 -39.71,-541.73 0,0 -220.2,188.29 -75.36,601.3 144.86,413.02 93.23,452.28 93.23,452.28"
         style="fill:#bdbcbc;fill-opacity:1;fill-rule:nonzero;stroke:none"
         transform="matrix(0.13333333,0,0,-0.13333333,0,978.36)" />
      <path
         id="path131"
         d="m 2863.9,7176.65 107.31,-375.29 -147.94,309.52 z"
         style="fill:#231f20;fill-opacity:1;fill-rule:nonzero;stroke:none"
         transform="matrix(0.13333333,0,0,-0.13333333,0,978.36)" />
      <path
         id="path132"
         d="m 1609.39,5050.58 c 0,0 175,575.01 642.86,857.16 0,0 67.86,292.86 142.86,346.43 l -110.71,21.43 c 0,0 -335.72,-185.72 -421.44,-300 l -42.85,-214.29 350,289.29 c 0,0 -514.29,-578.58 -560.72,-1000.02"
         style="fill:#bdbcbc;fill-opacity:1;fill-rule:nonzero;stroke:none"
         transform="matrix(0.13333333,0,0,-0.13333333,0,978.36)" />
      <path
         id="path133"
         d="m 3083.81,7026.21 46.43,-246.44 -228.57,332.15 c 0,0 -203.58,-82.14 -217.86,-160.71 0,0 160.71,-625.01 450,-867.87 l -125,303.57 c 0,0 128.58,-167.83 192.86,-235.7"
         style="fill:#bdbcbc;fill-opacity:1;fill-rule:nonzero;stroke:none"
         transform="matrix(0.13333333,0,0,-0.13333333,0,978.36)" />
      <path
         id="path134"
         d="m 2866.55,6289.89 -314.29,596.43 c 0,0 -175.01,-75 -192.86,-150 0,0 389.29,-267.86 507.15,-446.43"
         style="fill:#bdbcbc;fill-opacity:1;fill-rule:nonzero;stroke:none"
         transform="matrix(0.13333333,0,0,-0.13333333,0,978.36)" />
      <path
         id="path135"
         d="m 2134.39,6504.18 117.86,121.43 c 0,0 428.58,-246.44 625.01,-453.58 0,0 -203.57,64.29 -414.29,178.57 -210.72,114.29 -328.58,153.58 -328.58,153.58"
         style="fill:#bdbcbc;fill-opacity:1;fill-rule:nonzero;stroke:none"
         transform="matrix(0.13333333,0,0,-0.13333333,0,978.36)" />
      <path
         id="path136"
         d="m 1697.6,3908.58 c 0,0 -185.55,-466.92 38.26,-990.45 l -248.79,-82.63 c 0,0 -125.72,725.71 210.53,1073.08"
         style="fill:#bdbcbc;fill-opacity:1;fill-rule:nonzero;stroke:none"
         transform="matrix(0.13333333,0,0,-0.13333333,0,978.36)" />
      <path
         id="path137"
         d="m 3199.02,6154.68 c -64.29,67.88 -192.85,235.7 -192.85,235.7 l 125,-303.58 c -289.3,242.87 -450.01,867.88 -450.01,867.88 14.29,78.57 217.86,160.71 217.86,160.71 l 228.58,-332.14 -46.43,246.43"
         style="fill:#bdbcbc;fill-opacity:1;fill-rule:nonzero;stroke:none"
         transform="matrix(0.13333333,0,0,-0.13333333,0,978.36)" />
      <path
         id="path138"
         d="m 240.082,3221.86 c 0,0 4.227,-598.77 549.359,-329.9 545.129,268.86 290.709,1181.26 290.709,1181.26 0,0 -369.259,-1066.99 -840.068,-851.36"
         style="fill:#231f20;fill-opacity:1;fill-rule:nonzero;stroke:none"
         transform="matrix(0.13333333,0,0,-0.13333333,0,978.36)" />
      <path
         id="path139"
         d="m 919.688,2867.55 c 0,0 159.342,230.11 255.632,517.12 0,0 -86.85,-485.36 107.74,-529.04 l -363.372,11.92"
         style="fill:#bdbcbc;fill-opacity:1;fill-rule:nonzero;stroke:none"
         transform="matrix(0.13333333,0,0,-0.13333333,0,978.36)" />
      <path
         id="path140"
         d="m 2653.65,5660.31 -43.93,494.65 c -2.83,1.44 -7.69,4.11 -7.69,4.11 l 4.79,-193.3 c 10.71,-136.64 -182.14,-338.02 -228.57,-391.96 -46.43,-53.93 -14.29,-129.45 -14.29,-129.45 0,0 150,143.84 185.72,147.43 35.71,3.6 378.57,-338.02 378.57,-338.02 -2.82,2.84 -5.85,6.95 -9.03,12.1 l -317.45,425.17 51.88,-30.73"
         style="fill:#e9e9e9;fill-opacity:1;fill-rule:nonzero;stroke:none"
         transform="matrix(0.13333333,0,0,-0.13333333,0,978.36)" />
      <path
         id="path141"
         d="m 2834.4,7130.36 c 0,0 93,-868.84 342.34,-1100.85 l -229.15,1085.43 -113.19,15.42"
         style="fill:#231f20;fill-opacity:1;fill-rule:nonzero;stroke:none"
         transform="matrix(0.13333333,0,0,-0.13333333,0,978.36)" />
      <path
         id="path142"
         d="m 2968.83,7014.32 c 0,0 44.78,-814.02 230.1,-921.25 l -3.71,921.25 -189.66,116.04 c 0,0 -53.04,-9.39 -36.73,-116.04"
         style="fill:#bdbcbc;fill-opacity:1;fill-rule:nonzero;stroke:none"
         transform="matrix(0.13333333,0,0,-0.13333333,0,978.36)" />
      <path
         id="path143"
         d="m 3120.65,7076.96 c 0,0 76.24,-304.8 78.28,-532.15 v 553.99 l -78.28,-21.84"
         style="fill:#231f20;fill-opacity:1;fill-rule:nonzero;stroke:none"
         transform="matrix(0.13333333,0,0,-0.13333333,0,978.36)" />
      <path
         id="path144"
         d="m 3125.44,7057.02 -126.06,71.14 c 0,0 -32.62,-25.68 -27.65,-157.58 4.97,-131.9 -54.6,218.57 -54.6,218.57 h 116.16 l 92.15,-132.13"
         style="fill:#231f20;fill-opacity:1;fill-rule:nonzero;stroke:none"
         transform="matrix(0.13333333,0,0,-0.13333333,0,978.36)" />
      <path
         id="path145"
         d="m 1653.12,4019.94 c 0,0 318.56,238.36 310.15,313.23 -8.42,74.87 -131.01,224.31 -131.01,224.31 0,0 31.8,-325.41 -179.14,-537.54"
         style="fill:#bdbcbc;fill-opacity:1;fill-rule:nonzero;stroke:none"
         transform="matrix(0.13333333,0,0,-0.13333333,0,978.36)" />
      <path
         id="path146"
         d="m 1532.16,4963.33 c 0,0 -347.77,-1472.74 -883.312,-2015.25 0,0 506.442,526.85 666.172,971.41 L 1260.89,3388 c 0,0 280.08,685.08 271.27,1575.33"
         style="fill:#bdbcbc;fill-opacity:1;fill-rule:nonzero;stroke:none"
         transform="matrix(0.13333333,0,0,-0.13333333,0,978.36)" />
      <path
         id="path147"
         d="m 1792.72,5098.68 c 0,0 -184.7,-397.8 -96.85,-644.21 0,0 8.1,164.3 45.41,277.73 l 166.37,-139.37 c 0,0 -177.43,115.01 -114.93,505.85"
         style="fill:#bdbcbc;fill-opacity:1;fill-rule:nonzero;stroke:none"
         transform="matrix(0.13333333,0,0,-0.13333333,0,978.36)" />
      <path
         id="path148"
         d="m 2835.33,4231.68 -0.32,-0.19 c 3.92,-2.87 7.95,-5.65 12.09,-8.34 -4.03,2.75 -7.96,5.59 -11.77,8.53"
         style="fill:#bdbcbc;fill-opacity:1;fill-rule:nonzero;stroke:none"
         transform="matrix(0.13333333,0,0,-0.13333333,0,978.36)" />
      <path
         id="path149"
         d="m 2947.94,4063.66 c 0,-17.86 75,-92.86 75,-92.86 l -121.43,14.29 126.68,-17.71 c 0,0 -68.52,68.57 -74.43,90.12 -4.27,3.73 -5.82,6.16 -5.82,6.16"
         style="fill:#bdbcbc;fill-opacity:1;fill-rule:nonzero;stroke:none"
         transform="matrix(0.13333333,0,0,-0.13333333,0,978.36)" />
      <path
         id="path150"
         d="m 2848.83,4222.01 c 1.23,-0.78 2.43,-1.58 3.67,-2.35 -1.22,0.79 -2.47,1.54 -3.67,2.35"
         style="fill:#bdbcbc;fill-opacity:1;fill-rule:nonzero;stroke:none"
         transform="matrix(0.13333333,0,0,-0.13333333,0,978.36)" />
      <path
         id="path151"
         d="m 3192.02,4016.87 c 0.5,0.02 0.98,0.03 1.48,0.05 v 0.01 c -0.49,-0.02 -0.98,-0.04 -1.48,-0.06"
         style="fill:#bdbcbc;fill-opacity:1;fill-rule:nonzero;stroke:none"
         transform="matrix(0.13333333,0,0,-0.13333333,0,978.36)" />
      <path
         id="path152"
         d="m 2992.32,4036.72 c -1.41,0.51 -2.74,1.03 -4.07,1.54 1.3,-0.51 2.67,-1.03 4.07,-1.54"
         style="fill:#bdbcbc;fill-opacity:1;fill-rule:nonzero;stroke:none"
         transform="matrix(0.13333333,0,0,-0.13333333,0,978.36)" />
      <path
         id="path153"
         d="m 3033.41,4025.61 c -16.18,3.22 -29.48,6.95 -40.3,10.82 10.59,-3.84 23.83,-7.59 40.3,-10.82"
         style="fill:#bdbcbc;fill-opacity:1;fill-rule:nonzero;stroke:none"
         transform="matrix(0.13333333,0,0,-0.13333333,0,978.36)" />
      <path
         id="path154"
         d="m 3040.37,4024.32 c -1.61,0.29 -3.26,0.56 -4.82,0.86 1.56,-0.3 3.2,-0.57 4.82,-0.86"
         style="fill:#bdbcbc;fill-opacity:1;fill-rule:nonzero;stroke:none"
         transform="matrix(0.13333333,0,0,-0.13333333,0,978.36)" />
      <path
         id="path155"
         d="m 2980.52,4302.13 -3.52,0.04 69.52,-26.98 4.1,-0.27 -70.1,27.21"
         style="fill:#ffffff;fill-opacity:1;fill-rule:nonzero;stroke:none"
         transform="matrix(0.13333333,0,0,-0.13333333,0,978.36)" />
      <path
         id="path156"
         d="m 3138.9,3881.67 -0.03,-0.02 0.4,-8.2 z"
         style="fill:#a7a5a6;fill-opacity:1;fill-rule:nonzero;stroke:none"
         transform="matrix(0.13333333,0,0,-0.13333333,0,978.36)" />
      <path
         id="path157"
         d="m 3031.97,2560.35 c -68.23,163.53 -114.02,373.32 -138.06,502.67 22.97,-221.96 79.62,-386.38 138.06,-502.67"
         style="fill:#a7a5a6;fill-opacity:1;fill-rule:nonzero;stroke:none"
         transform="matrix(0.13333333,0,0,-0.13333333,0,978.36)" />
      <path
         id="path158"
         d="m 3189.5,2337.16 c 0.53,-0.49 1.12,-1.06 1.61,-1.51 l 0.03,0.67 c -0.55,0.29 -1.1,0.54 -1.64,0.84"
         style="fill:#a7a5a6;fill-opacity:1;fill-rule:nonzero;stroke:none"
         transform="matrix(0.13333333,0,0,-0.13333333,0,978.36)" />
      <path
         id="path159"
         d="m 3193.5,2853.08 -50.29,938.42 50.29,-1044.28 z"
         style="fill:#a7a5a6;fill-opacity:1;fill-rule:nonzero;stroke:none"
         transform="matrix(0.13333333,0,0,-0.13333333,0,978.36)" />
      <path
         id="path160"
         d="m 3191.91,2335.92 c -0.21,-0.13 -0.43,-0.28 -0.64,-0.42 0.85,-0.78 1.52,-1.38 2.23,-2.02 v 1.63 c -0.53,0.28 -1.06,0.54 -1.59,0.81"
         style="fill:#a7a5a6;fill-opacity:1;fill-rule:nonzero;stroke:none"
         transform="matrix(0.13333333,0,0,-0.13333333,0,978.36)" />
      <path
         id="path161"
         d="m 2993.11,4036.43 c -0.26,0.1 -0.53,0.19 -0.79,0.29 0.26,-0.1 0.53,-0.19 0.79,-0.29"
         style="fill:#bdbcbc;fill-opacity:1;fill-rule:nonzero;stroke:none"
         transform="matrix(0.13333333,0,0,-0.13333333,0,978.36)" />
      <path
         id="path162"
         d="m 3035.55,4025.18 c -0.73,0.14 -1.42,0.29 -2.14,0.43 0.72,-0.14 1.41,-0.29 2.14,-0.43"
         style="fill:#bdbcbc;fill-opacity:1;fill-rule:nonzero;stroke:none"
         transform="matrix(0.13333333,0,0,-0.13333333,0,978.36)" />
      <path
         id="path163"
         d="m 2847.1,4223.15 c 0.56,-0.39 1.16,-0.76 1.73,-1.14 -0.58,0.37 -1.16,0.76 -1.73,1.14"
         style="fill:#bdbcbc;fill-opacity:1;fill-rule:nonzero;stroke:none"
         transform="matrix(0.13333333,0,0,-0.13333333,0,978.36)" />
      <path
         id="path164"
         d="m 3040.37,4024.32 c 35.78,-6.42 84.83,-10.18 151.65,-7.45 -67.5,-2.56 -116.41,1.21 -151.65,7.45"
         style="fill:#bdbcbc;fill-opacity:1;fill-rule:nonzero;stroke:none"
         transform="matrix(0.13333333,0,0,-0.13333333,0,978.36)" />
      <path
         id="path165"
         d="m 2953.19,4060.25 c 0,-0.78 0.31,-1.78 0.57,-2.75 5.66,-4.93 16.19,-12.17 34.49,-19.24 -27.97,11.01 -35.06,21.99 -35.06,21.99"
         style="fill:#bdbcbc;fill-opacity:1;fill-rule:nonzero;stroke:none"
         transform="matrix(0.13333333,0,0,-0.13333333,0,978.36)" />
      <path
         id="path166"
         d="m 3020.56,4158.67 c -12.54,2.5 -19.75,4.21 -19.75,4.21 l 0.92,1.41 c -1.1,0.36 -2.2,0.7 -3.28,1.07 -51.02,10.96 -103.3,27.94 -145.95,54.3 48.71,-31.62 111.07,-50.42 169.93,-61.5 -0.63,0.16 -1.25,0.34 -1.87,0.51"
         style="fill:#bdbcbc;fill-opacity:1;fill-rule:nonzero;stroke:none"
         transform="matrix(0.13333333,0,0,-0.13333333,0,978.36)" />
      <path
         id="path167"
         d="m 2835.01,4231.49 c -1.64,1.2 -3.33,2.36 -4.93,3.6 l -117.85,-67.86 189.28,-182.14 -184.04,178.73 117.54,67.67"
         style="fill:#bdbcbc;fill-opacity:1;fill-rule:nonzero;stroke:none"
         transform="matrix(0.13333333,0,0,-0.13333333,0,978.36)" />
      <path
         id="path168"
         d="m 3193.5,4138.14 c -20.58,0.77 -40.46,2.17 -59.17,3.96 -37.99,1.8 -76.24,6.62 -111.9,16.06 -58.86,11.08 -121.22,29.88 -169.93,61.5 -1.24,0.77 -2.44,1.57 -3.67,2.35 -0.57,0.38 -1.17,0.75 -1.73,1.14 -4.14,2.69 -8.17,5.47 -12.09,8.34 l -117.54,-67.67 184.04,-178.73 121.43,-14.29 c 0,0 -75,75 -75,92.86 0,0 1.55,-2.43 5.82,-6.16 -0.26,0.97 -0.57,1.97 -0.57,2.75 0,0 7.09,-10.98 35.06,-21.99 1.33,-0.51 2.66,-1.03 4.07,-1.54 0.26,-0.1 0.53,-0.19 0.79,-0.29 10.82,-3.87 24.12,-7.6 40.3,-10.82 0.72,-0.14 1.41,-0.29 2.14,-0.43 1.56,-0.3 3.21,-0.57 4.82,-0.86 35.24,-6.24 84.15,-10.01 151.65,-7.45 0.5,0.02 0.99,0.04 1.48,0.06 v 121.21"
         style="fill:#bdbcbc;fill-opacity:1;fill-rule:nonzero;stroke:none"
         transform="matrix(0.13333333,0,0,-0.13333333,0,978.36)" />
      <path
         id="path169"
         d="m 3000.81,4162.88 c 0,0 7.21,-1.71 19.75,-4.21 -6.38,1.72 -12.65,3.6 -18.83,5.62 l -0.92,-1.41"
         style="fill:#bdbcbc;fill-opacity:1;fill-rule:nonzero;stroke:none"
         transform="matrix(0.13333333,0,0,-0.13333333,0,978.36)" />
      <path
         id="path170"
         d="m 3134.33,4142.1 c 18.71,-1.79 38.59,-3.19 59.17,-3.96 v 3.34 c -19.36,-0.49 -39.22,-0.33 -59.17,0.62"
         style="fill:#bdbcbc;fill-opacity:1;fill-rule:nonzero;stroke:none"
         transform="matrix(0.13333333,0,0,-0.13333333,0,978.36)" />
      <path
         id="path171"
         d="m 3193.5,4303.59 -222.64,2.29 9.66,-3.75 212.98,-2.19 v 3.65"
         style="fill:#ffffff;fill-opacity:1;fill-rule:nonzero;stroke:none"
         transform="matrix(0.13333333,0,0,-0.13333333,0,978.36)" />
      <path
         id="path172"
         d="m 3036.52,4217.64 -72.62,59.53 92.86,-5.96 -10.24,3.98 -88.76,5.69 72.62,-59.53 -35.71,-54.76 c 1.24,-0.44 2.53,-0.81 3.78,-1.23 1.16,-0.25 2.32,-0.49 3.49,-0.74 l 34.58,53.02"
         style="fill:#ffffff;fill-opacity:1;fill-rule:nonzero;stroke:none"
         transform="matrix(0.13333333,0,0,-0.13333333,0,978.36)" />
      <path
         id="path173"
         d="m 2963.9,4277.17 72.62,-59.53 -34.58,-53.02 c 82.83,-17.36 161.57,-18.97 189.16,-18.92 v 0.42 c 0,0 0.89,-0.02 2.4,-0.05 v 153.87 l -212.98,2.19 70.1,-27.21 -4.1,0.27 10.24,-3.98 -92.86,5.96"
         style="fill:#ffffff;fill-opacity:1;fill-rule:nonzero;stroke:none"
         transform="matrix(0.13333333,0,0,-0.13333333,0,978.36)" />
      <path
         id="path174"
         d="m 3020.56,4158.67 c 0.62,-0.17 1.24,-0.35 1.87,-0.51 4.23,-0.8 8.43,-1.54 12.63,-2.26 -5.43,1 -10.27,1.93 -14.5,2.77"
         style="fill:#ffffff;fill-opacity:1;fill-rule:nonzero;stroke:none"
         transform="matrix(0.13333333,0,0,-0.13333333,0,978.36)" />
      <path
         id="path175"
         d="m 3001.94,4164.62 c -1.17,0.25 -2.33,0.49 -3.49,0.74 1.08,-0.37 2.18,-0.71 3.28,-1.07 l 0.21,0.33"
         style="fill:#ffffff;fill-opacity:1;fill-rule:nonzero;stroke:none"
         transform="matrix(0.13333333,0,0,-0.13333333,0,978.36)" />
      <path
         id="path176"
         d="m 3022.43,4158.16 c 35.66,-9.44 73.91,-14.26 111.9,-16.06 -40.5,3.85 -75.34,9.39 -99.27,13.8 -4.2,0.72 -8.4,1.46 -12.63,2.26"
         style="fill:#ffffff;fill-opacity:1;fill-rule:nonzero;stroke:none"
         transform="matrix(0.13333333,0,0,-0.13333333,0,978.36)" />
      <path
         id="path177"
         d="m 3193.5,4142.29 v 3.78 c -1.51,0.03 -2.4,0.05 -2.4,0.05 v -0.42 c -27.59,-0.05 -106.33,1.56 -189.16,18.92 l -0.21,-0.33 c 6.18,-2.02 12.45,-3.9 18.83,-5.62 4.23,-0.84 9.07,-1.77 14.5,-2.77 69.57,-11.96 132.13,-13.55 158.44,-13.61"
         style="fill:#ffffff;fill-opacity:1;fill-rule:nonzero;stroke:none"
         transform="matrix(0.13333333,0,0,-0.13333333,0,978.36)" />
      <path
         id="path178"
         d="m 3193.5,4141.48 v 0.81 c -26.31,0.06 -88.87,1.65 -158.44,13.61 23.93,-4.41 58.77,-9.95 99.27,-13.8 19.95,-0.95 39.81,-1.11 59.17,-0.62"
         style="fill:#ffffff;fill-opacity:1;fill-rule:nonzero;stroke:none"
         transform="matrix(0.13333333,0,0,-0.13333333,0,978.36)" />
      <path
         id="path179"
         d="m 3191.1,2335.38 c 0.06,0.04 0.11,0.08 0.17,0.12 -0.05,0.04 -0.11,0.1 -0.16,0.15 l -0.01,-0.27"
         style="fill:#a7a5a6;fill-opacity:1;fill-rule:nonzero;stroke:none"
         transform="matrix(0.13333333,0,0,-0.13333333,0,978.36)" />
      <path
         id="path180"
         d="m 3074.23,3788.94 -31.76,10.59 c 0.08,0.32 0.2,0.63 0.29,0.95 l -0.37,0.12 c 10.71,42.86 96.43,82.15 96.43,82.15 0,0 -93.56,-39.63 -104.27,-82.49 l 32.14,-10.71 -192.86,-607.15 48.18,127.31 152.22,479.23"
         style="fill:#a7a5a6;fill-opacity:1;fill-rule:nonzero;stroke:none"
         transform="matrix(0.13333333,0,0,-0.13333333,0,978.36)" />
      <path
         id="path181"
         d="m 3042.39,3800.6 0.37,-0.12 c -0.09,-0.32 -0.21,-0.63 -0.29,-0.95 l 31.76,-10.59 -152.22,-479.23 216.81,573.04 c 0,0 -85.72,-39.29 -96.43,-82.15"
         style="fill:#a7a5a6;fill-opacity:1;fill-rule:nonzero;stroke:none"
         transform="matrix(0.13333333,0,0,-0.13333333,0,978.36)" />
      <path
         id="path182"
         d="m 3191.14,2336.32 -0.03,-0.67 c 0.05,-0.05 0.11,-0.11 0.16,-0.15 0.21,0.14 0.43,0.29 0.64,0.42 -0.26,0.14 -0.52,0.26 -0.77,0.4"
         style="fill:#a7a5a6;fill-opacity:1;fill-rule:nonzero;stroke:none"
         transform="matrix(0.13333333,0,0,-0.13333333,0,978.36)" />
      <path
         id="path183"
         d="m 3143.21,3791.5 -3.94,81.95 1.98,-45.37 z"
         style="fill:#a7a5a6;fill-opacity:1;fill-rule:nonzero;stroke:none"
         transform="matrix(0.13333333,0,0,-0.13333333,0,978.36)" />
      <path
         id="path184"
         d="m 3178.83,2347.5 c -31.83,26.66 -61.08,64.72 -87.77,110.14 -19.05,28.85 -39.15,63.04 -59.09,102.71 43.38,-103.96 95.82,-189.2 157.53,-223.19 -2.97,2.76 -6.49,6.14 -10.67,10.34"
         style="fill:#a7a5a6;fill-opacity:1;fill-rule:nonzero;stroke:none"
         transform="matrix(0.13333333,0,0,-0.13333333,0,978.36)" />
      <path
         id="path185"
         d="m 3138.87,3881.65 -0.05,1.1 0.04,-1.1 z"
         style="fill:#a7a5a6;fill-opacity:1;fill-rule:nonzero;stroke:none"
         transform="matrix(0.13333333,0,0,-0.13333333,0,978.36)" />
      <path
         id="path186"
         d="m 2873.83,3182.4 c 0,0 6.66,-47.16 20.08,-119.38 -0.4,3.85 -0.87,7.56 -1.25,11.44 -12.62,65.77 -18.83,107.94 -18.83,107.94"
         style="fill:#a7a5a6;fill-opacity:1;fill-rule:nonzero;stroke:none"
         transform="matrix(0.13333333,0,0,-0.13333333,0,978.36)" />
      <path
         id="path187"
         d="m 3140.07,3850.11 1.18,-22.03 -1.98,45.37 -0.4,8.2 h -0.01 l 1.21,-31.54"
         style="fill:#a7a5a6;fill-opacity:1;fill-rule:nonzero;stroke:none"
         transform="matrix(0.13333333,0,0,-0.13333333,0,978.36)" />
      <path
         id="path188"
         d="m 2892.66,3074.46 c 0.38,-3.88 0.85,-7.59 1.25,-11.44 24.04,-129.35 69.83,-339.14 138.06,-502.67 19.94,-39.67 40.04,-73.86 59.09,-102.71 -103.48,176.08 -168.71,461.96 -198.4,616.82"
         style="fill:#a7a5a6;fill-opacity:1;fill-rule:nonzero;stroke:none"
         transform="matrix(0.13333333,0,0,-0.13333333,0,978.36)" />
      <path
         id="path189"
         d="m 3191.2,2337.73 c -4.17,3.04 -8.29,6.34 -12.37,9.77 4.18,-4.2 7.7,-7.58 10.67,-10.34 0.54,-0.3 1.09,-0.55 1.64,-0.84 l 0.06,1.41"
         style="fill:#a7a5a6;fill-opacity:1;fill-rule:nonzero;stroke:none"
         transform="matrix(0.13333333,0,0,-0.13333333,0,978.36)" />
      <path
         id="path190"
         d="m 3193.5,2634.52 v 112.7 l -50.29,1044.28 -1.96,36.58 52.25,-1193.56"
         style="fill:#a7a5a6;fill-opacity:1;fill-rule:nonzero;stroke:none"
         transform="matrix(0.13333333,0,0,-0.13333333,0,978.36)" />
      <path
         id="path191"
         d="m 3192.82,2336.55 c -0.31,-0.21 -0.61,-0.41 -0.91,-0.63 0.53,-0.27 1.06,-0.53 1.59,-0.81 v 0.97 c -0.23,0.17 -0.45,0.31 -0.68,0.47"
         style="fill:#a7a5a6;fill-opacity:1;fill-rule:nonzero;stroke:none"
         transform="matrix(0.13333333,0,0,-0.13333333,0,978.36)" />
      <path
         id="path192"
         d="m 3193.5,2634.52 -52.25,1193.56 -1.18,22.03 53.43,-1391.4 v 175.81"
         style="fill:#a7a5a6;fill-opacity:1;fill-rule:nonzero;stroke:none"
         transform="matrix(0.13333333,0,0,-0.13333333,0,978.36)" />
      <path
         id="path193"
         d="m 3178.83,2347.5 c -19.66,19.72 -51.76,55.59 -87.77,110.14 26.69,-45.42 55.94,-83.48 87.77,-110.14"
         style="fill:#a7a5a6;fill-opacity:1;fill-rule:nonzero;stroke:none"
         transform="matrix(0.13333333,0,0,-0.13333333,0,978.36)" />
      <path
         id="path194"
         d="m 3138.86,3881.65 -0.04,1.1 c -0.14,-0.42 -0.29,-0.88 -0.43,-1.32 0.28,0.13 0.44,0.2 0.47,0.22"
         style="fill:#a7a5a6;fill-opacity:1;fill-rule:nonzero;stroke:none"
         transform="matrix(0.13333333,0,0,-0.13333333,0,978.36)" />
      <path
         id="path195"
         d="m 2886.92,3149.49 c -3.44,20.51 -5.16,32.17 -5.16,32.17 l 0.05,0.15 c -0.09,0.6 -0.14,0.92 -0.14,0.92 l 3.02,9.5 v 0 0 l 37.32,117.48 -48.18,-127.31 c 0,0 6.21,-42.17 18.83,-107.94 -2.36,24.28 -4.23,49.38 -5.74,75.03"
         style="fill:#a7a5a6;fill-opacity:1;fill-rule:nonzero;stroke:none"
         transform="matrix(0.13333333,0,0,-0.13333333,0,978.36)" />
      <path
         id="path196"
         d="m 2884.69,3192.23 253.7,689.2 c 0.14,0.44 0.29,0.9 0.43,1.32 l -216.81,-573.04 -37.32,-117.48"
         style="fill:#a7a5a6;fill-opacity:1;fill-rule:nonzero;stroke:none"
         transform="matrix(0.13333333,0,0,-0.13333333,0,978.36)" />
      <path
         id="path197"
         d="m 2881.67,3182.73 c 0,0 0.05,-0.32 0.14,-0.92 l -0.05,-0.15 c 0,0 1.72,-11.66 5.16,-32.17 -0.83,14.11 -1.68,28.21 -2.23,42.74 l -3.02,-9.5"
         style="fill:#a7a5a6;fill-opacity:1;fill-rule:nonzero;stroke:none"
         transform="matrix(0.13333333,0,0,-0.13333333,0,978.36)" />
      <path
         id="path198"
         d="m 3138.86,3881.65 c -0.03,-0.02 -0.19,-0.09 -0.47,-0.22 l 1.68,-31.32 -1.21,31.54"
         style="fill:#a7a5a6;fill-opacity:1;fill-rule:nonzero;stroke:none"
         transform="matrix(0.13333333,0,0,-0.13333333,0,978.36)" />
      <path
         id="path199"
         d="m 2884.69,3192.23 v 0 0 z"
         style="fill:#a7a5a6;fill-opacity:1;fill-rule:nonzero;stroke:none"
         transform="matrix(0.13333333,0,0,-0.13333333,0,978.36)" />
      <path
         id="path200"
         d="m 3193.5,2336.08 v 5.26 c -184.49,143.43 -283.75,672.1 -306.58,808.15 1.51,-25.65 3.38,-50.75 5.74,-75.03 29.69,-154.86 94.92,-440.74 198.4,-616.82 36.01,-54.55 68.11,-90.42 87.77,-110.14 4.08,-3.43 8.2,-6.73 12.37,-9.77 l -0.06,-1.41 c 0.25,-0.14 0.51,-0.26 0.77,-0.4 0.3,0.22 0.6,0.42 0.91,0.63 0.23,-0.16 0.45,-0.3 0.68,-0.47"
         style="fill:#a7a5a6;fill-opacity:1;fill-rule:nonzero;stroke:none"
         transform="matrix(0.13333333,0,0,-0.13333333,0,978.36)" />
      <path
         id="path201"
         d="m 3193.5,2341.34 v 117.37 l -53.43,1391.4 -1.68,31.32 -253.7,-689.2 v 0 c 0.55,-14.53 1.4,-28.63 2.23,-42.74 22.83,-136.05 122.09,-664.72 306.58,-808.15"
         style="fill:#a7a5a6;fill-opacity:1;fill-rule:nonzero;stroke:none"
         transform="matrix(0.13333333,0,0,-0.13333333,0,978.36)" />
      <path
         id="path202"
         d="m 3090.93,5039.98 c -17.97,9.25 -30.6,16.71 -30.6,16.71 -11.9,-47.63 57.14,-192.86 57.14,-192.86 -52.37,30.95 -83.33,114.28 -83.33,114.28 -28.57,-2.38 -33.33,-59.52 -30.95,-83.33 2.38,-23.81 64.28,-197.62 64.28,-197.62 l -126.19,169.05 c -430.95,-145.24 -483.34,138.09 -483.34,138.09 235.72,-202.38 473.82,-59.52 473.82,-59.52 -173.81,-14.28 -466.67,164.29 -500.01,190.48 -33.33,26.19 -50,-9.53 -50,-9.53 45.24,-80.95 21.43,-147.62 21.43,-147.62 l -16.67,69.05 c -73.81,-50 -147.62,-228.57 -147.62,-228.57 28.57,-142.86 302.39,-245.24 333.34,-245.24 30.95,0 288.1,185.71 326.2,178.57 38.09,-7.14 97.61,-85.72 97.61,-85.72 l -52.38,28.58 c -26.19,-14.29 -35.71,-52.39 -26.19,-95.24 9.53,-42.86 126.2,-38.1 159.53,-85.72 9.5,-13.57 24.13,-25.4 40.19,-35.37 1.61,-1.82 3.28,-3.56 5.04,-5.1 24,-21 48.69,-28.7 71.27,-29.5 v 567.01 c -41.82,3.86 -78.39,17.65 -102.57,29.12"
         style="fill:#ffffff;fill-opacity:1;fill-rule:nonzero;stroke:none"
         transform="matrix(0.13333333,0,0,-0.13333333,0,978.36)" />
      <path
         id="path203"
         d="m 3124.69,5115.32 c 0,0 -4.4,6.89 -12.22,19.16 3.17,-7.56 7.16,-14.1 12.22,-19.16"
         style="fill:#ffffff;fill-opacity:1;fill-rule:nonzero;stroke:none"
         transform="matrix(0.13333333,0,0,-0.13333333,0,978.36)" />
      <path
         id="path204"
         d="m 3190.76,5894.8 v -0.28 c -97.85,13.89 -587.51,263.68 -587.51,263.68 l 3.57,-196.44 c 10.71,-135.71 -182.14,-335.71 -228.57,-389.29 -46.43,-53.57 -14.29,-128.57 -14.29,-128.57 0,0 150,142.86 185.72,146.43 35.71,3.57 378.57,-335.72 378.57,-335.72 -46.43,46.43 -146.43,425.01 -146.43,425.01 56.22,-112.43 288.48,-478.84 342.87,-564.3 -28.15,67.25 0,239.3 0,239.3 8.04,-110.02 46.33,-185.75 64.87,-216.61 v -0.08 l 0.03,0.03 c 1.44,-2.39 2.74,-4.46 3.91,-6.31 v 763.17 c -0.95,-0.03 -1.91,-0.06 -2.74,-0.02"
         style="fill:#ffffff;fill-opacity:1;fill-rule:nonzero;stroke:none"
         transform="matrix(0.13333333,0,0,-0.13333333,0,978.36)" />
      <path
         id="path205"
         d="m 3206.76,2331.67 -0.04,0.93 c -0.25,-0.13 -0.51,-0.25 -0.76,-0.39 0.26,-0.18 0.53,-0.37 0.8,-0.54"
         style="fill:#a7a5a6;fill-opacity:1;fill-rule:nonzero;stroke:none"
         transform="matrix(0.13333333,0,0,-0.13333333,0,978.36)" />
      <path
         id="path206"
         d="m 3199.2,2332.7 c -0.1,-0.09 -0.36,-0.3 -0.36,-0.3 -1.8,0.82 -3.56,1.81 -5.34,2.71 v -1.63 c 3.47,-3.1 5.52,-4.79 5.52,-4.79 l 0.18,4.01"
         style="fill:#a7a5a6;fill-opacity:1;fill-rule:nonzero;stroke:none"
         transform="matrix(0.13333333,0,0,-0.13333333,0,978.36)" />
      <path
         id="path207"
         d="m 3199.02,2328.69 c 2.33,1.07 4.63,2.31 6.94,3.52 -0.31,0.22 -0.61,0.42 -0.92,0.63 -1.99,-1.43 -4,-2.81 -6.02,-4.15"
         style="fill:#a7a5a6;fill-opacity:1;fill-rule:nonzero;stroke:none"
         transform="matrix(0.13333333,0,0,-0.13333333,0,978.36)" />
      <path
         id="path208"
         d="m 3195.86,2698.27 2.97,55.41 -5.33,99.4 v -105.86 l 2.36,-48.95"
         style="fill:#a7a5a6;fill-opacity:1;fill-rule:nonzero;stroke:none"
         transform="matrix(0.13333333,0,0,-0.13333333,0,978.36)" />
      <path
         id="path209"
         d="m 3198.62,2337.4 0.22,-5 c 0,0 0.26,0.21 0.36,0.3 l 0.18,4.11 c -0.26,0.19 -0.5,0.4 -0.76,0.59"
         style="fill:#a7a5a6;fill-opacity:1;fill-rule:nonzero;stroke:none"
         transform="matrix(0.13333333,0,0,-0.13333333,0,978.36)" />
      <path
         id="path210"
         d="m 3193.5,2335.11 c 1.78,-0.9 3.54,-1.89 5.34,-2.71 -1.79,1.18 -3.56,2.42 -5.34,3.68 v -0.97"
         style="fill:#a7a5a6;fill-opacity:1;fill-rule:nonzero;stroke:none"
         transform="matrix(0.13333333,0,0,-0.13333333,0,978.36)" />
      <path
         id="path211"
         d="m 3194.9,2422.26 3.95,90.15 -5.35,122.11 v -175.81 l 1.4,-36.45"
         style="fill:#a7a5a6;fill-opacity:1;fill-rule:nonzero;stroke:none"
         transform="matrix(0.13333333,0,0,-0.13333333,0,978.36)" />
      <path
         id="path212"
         d="m 3193.5,2341.34 v -5.26 c 1.78,-1.26 3.55,-2.5 5.34,-3.68 l -0.22,5 c -1.72,1.26 -3.42,2.62 -5.12,3.94"
         style="fill:#a7a5a6;fill-opacity:1;fill-rule:nonzero;stroke:none"
         transform="matrix(0.13333333,0,0,-0.13333333,0,978.36)" />
      <path
         id="path213"
         d="m 3193.5,5131.65 -2.74,762.87 h 23.86 l -2.75,-762.87 h -18.37"
         style="fill:#ffffff;fill-opacity:1;fill-rule:nonzero;stroke:none"
         transform="matrix(0.13333333,0,0,-0.13333333,0,978.36)" />
      <path
         id="path214"
         d="m 3125.44,7057.02 34.35,-908.86 39.14,-55.09 h 7.51 l 93.62,531.49 -20.13,432.46 -78.26,-464.24 -76.23,464.24"
         style="fill:#bdbcbc;fill-opacity:1;fill-rule:nonzero;stroke:none"
         transform="matrix(0.13333333,0,0,-0.13333333,0,978.36)" />
      <path
         id="path215"
         d="m 3060.33,5056.69 c 0,0 152.08,-90.9 284.72,0 0,0 -129.49,-337.12 -114.73,-500.01 l -18.45,-112.83 h -18.37 c 0,0 -42.49,462.3 -59.17,489.13 -16.68,26.82 -74,123.71 -74,123.71"
         style="fill:#ffffff;fill-opacity:1;fill-rule:nonzero;stroke:none"
         transform="matrix(0.13333333,0,0,-0.13333333,0,978.36)" />
      <path
         id="path216"
         d="m 3138.39,3881.43 -60.01,-1069.74 120.46,-479.29 124.35,477.83 -56.21,1071.2 -66.2,-1071.2 -62.39,1071.2"
         style="fill:#a7a5a6;fill-opacity:1;fill-rule:nonzero;stroke:none"
         transform="matrix(0.13333333,0,0,-0.13333333,0,978.36)" />
      <path
         id="path217"
         d="m 2970.86,4305.88 h 463.66 l -75.66,-30.69 88.76,5.69 -72.63,-59.53 35.71,-54.76 -198.83,-25.11 h -18.37 l -198.83,25.11 35.71,54.76 -72.62,59.53 99,-9.67 -85.9,34.67"
         style="fill:#ffffff;fill-opacity:1;fill-rule:nonzero;stroke:none"
         transform="matrix(0.13333333,0,0,-0.13333333,0,978.36)" />
      <path
         id="path218"
         d="m 2953.76,4057.5 c 0,0 215.84,-91.84 497.85,0 282.01,91.85 -239.74,80.64 -239.74,80.64 l -18.37,3.34 -239.74,-83.98"
         style="fill:#bdbcbc;fill-opacity:1;fill-rule:nonzero;stroke:none"
         transform="matrix(0.13333333,0,0,-0.13333333,0,978.36)" />
      <path
         id="path219"
         d="m 2830.08,4235.09 c 0,0 188.98,-111.2 381.79,-93.61 192.81,17.59 363.42,93.61 363.42,93.61 l -127.67,-125 -249.01,-31.99 -286.84,7.87 -85.17,149.12"
         style="fill:#bdbcbc;fill-opacity:1;fill-rule:nonzero;stroke:none"
         transform="matrix(0.13333333,0,0,-0.13333333,0,978.36)" />
      <path
         id="path220"
         d="m 3147.05,2369.69 51.79,-37.29 13.03,3.68 46.43,33.61 c 0,0 -40.73,88.02 -46.43,89.02 -5.7,0.99 -64.82,-89.02 -64.82,-89.02"
         style="fill:#a7a5a6;fill-opacity:1;fill-rule:nonzero;stroke:none"
         transform="matrix(0.13333333,0,0,-0.13333333,0,978.36)" />
      <path
         id="path221"
         d="m 2885.5,1433.71 2.66,21.73 67.14,481.05 -250.99,0.01 -17.46,-0.12 h -386.41 l 0.04,0.13 h -18.04 l -17.04,-0.13 H 117.141 l 0.058,0.21 h -0.433 l 236.25,879.99 -92.539,244.63 1438.063,-3.22 7.11,337.74 2937.14,-11.06 -3.05,-323.46 h 1648.89 l -301.4,-1124.83 h -993.99 l -0.01,0.03 -195.53,0.01 -56.94,-0.04 h -816.44 l -0.02,0.07 -194.47,0.01 -58.3,-0.08 h -325.92 l 0.03,0.09 -43.76,0.01 -521.61,-1256.39 105.23,753.62"
         style="fill:#ffffff;fill-opacity:1;fill-rule:nonzero;stroke:none"
         transform="matrix(0.13333333,0,0,-0.13333333,0,978.36)" />
      <path
         id="path222"
         d="m 4767.55,3448.57 -3082.23,-8.81 -1.57,-356 H 227.844 l 23.094,-61.05 78.417,-207.3 -226.746,-844.58 -15.2418,-56.78 h 0.4726 l 58.7812,-0.21 h 2118.779 34.42 l 0.02,0.06 29.96,-0.06 h 357.05 34.76 l 0.03,0.11 207.75,-0.01 -63.56,-455.39 -6.04,-43.29 0.36,-0.06 -77.86,-557.661 -48.69,-348.668 134.99,325.141 448.34,1079.908 57.06,-0.08 h 297.51 l 58.39,0.07 h 178.62 0.01 l 30.49,-0.07 h 166.86 2.04 10.18 306.3 4.3 13.83 298.23 l 56.98,0.03 h 180.37 v -0.01 l 29.96,-0.02 138.29,0.01 46.74,-0.01 h 776.84 34.6 l 8.96,33.41 289.31,1079.75 15.21,56.76 h -58.76 l -1494.72,2.06 3.13,331.06 z m -48.11,-78.65 v -329.19 l 1539.81,-2.06 -289.32,-1079.75 h -776.84 v 0.01 l -185.03,-0.01 -0.01,0.04 -210.35,0.01 -56.95,-0.05 h -298.23 l 0.01,0.02 -18.14,-0.02 h -306.3 v 0.02 l -12.22,-0.02 h -166.86 l -0.03,0.08 -209.15,0.01 -58.33,-0.09 h -297.51 l 0.03,0.1 h -87.18 l -459.9,-1107.719 83.92,600.949 -0.37,0.07 70.72,506.72 -294.33,0.01 -0.03,-0.13 H 2329.8 l 0.04,0.14 h -64.4 l -0.04,-0.14 H 146.621 l 0.059,0.22 h -0.52 l 230.512,858.62 -83.563,220.91 1441.251,-6.75 v 334.96 l 2985.08,7.01"
         style="fill:#d3d2d2;fill-opacity:1;fill-rule:nonzero;stroke:none"
         transform="matrix(0.13333333,0,0,-0.13333333,0,978.36)" />
      <path
         id="path223"
         d="m 4452.06,3337.4 -98.29,-379.72 h 22.41"
         style="fill:#231f20;fill-opacity:1;fill-rule:nonzero;stroke:none"
         transform="matrix(0.13333333,0,0,-0.13333333,0,978.36)" />
      <path
         id="path224"
         d="m 4376.18,2880.4 h -122.25 l 123.31,476.36 149.63,-38.73 -98.29,-379.71 -52.4,13.56 v -71.48"
         style="fill:#231f20;fill-opacity:1;fill-rule:nonzero;stroke:none"
         transform="matrix(0.13333333,0,0,-0.13333333,0,978.36)" />
      <path
         id="path225"
         d="M 6102.79,2749.65 H 556.25 v 282.27 h 5546.54 v -282.27"
         style="fill:#231f20;fill-opacity:1;fill-rule:nonzero;stroke:none"
         transform="matrix(0.13333333,0,0,-0.13333333,0,978.36)" />
      <path
         id="path226"
         d="m 4353.77,2957.68 h 1804.76 l -55.74,-208.03 -192.17,-717.15 h -619.68 v 0.02 l -115.82,0.01 -0.01,-0.03 h -114.38 l -0.02,0.03 -319.95,0.01 -0.02,-0.04 h -197.63 l 0.01,0.05 h -118.71 l -0.02,-0.05 H 4218.8 l 0.01,0.06 -112.92,0.01 -0.02,-0.07 h -114.39 l -0.03,0.07 -319.93,0.01 -0.02,-0.08 h -197.63 l 0.02,0.09 -238.64,0.01 -248.33,-598.15 1.27,9.08 -1.17,-5.6 83,594.67 -442.4,0.01 -0.04,-0.11 h -196.91 l 0.04,0.12 -224.42,0.01 -0.04,-0.13 h -197.64 l 0.04,0.14 h -113.66 l -0.04,-0.14 h -619.69 l 0.05,0.16 -119.44,0.01 -0.05,-0.17 H 950.223 l 0.05,0.18 H 835.891 l -0.051,-0.18 H 247.273 l 0.059,0.2 h -0.41 l 210.851,785.38 -52.808,139.6 H 1982.86"
         style="fill:#231f20;fill-opacity:1;fill-rule:nonzero;stroke:none"
         transform="matrix(0.13333333,0,0,-0.13333333,0,978.36)" />
      <path
         id="path227"
         d="m 2826.94,847.59 83.92,600.95 -0.37,0.06 70.72,506.72 -294.33,0.02 -0.03,-0.13 H 2329.8 l 0.04,0.14 h -64.4 l -0.04,-0.14 H 146.621 l 0.059,0.22 h -0.52 l 230.512,858.62 -83.563,220.91 H 1982.86 V 2880.4 H 516.82 l 22.051,-58.28 -191.187,-712.13 h 0.304 l -0.054,-0.22 h 428.695 l 0.051,0.2 274.33,-0.01 -0.04,-0.19 h 45.53 l 0.05,0.18 279.47,-0.01 -0.04,-0.17 h 459.83 l 0.04,0.16 273.84,-0.02 -0.04,-0.14 h 37.44 l 0.04,0.14 384.45,-0.01 -0.04,-0.13 h 36.78 l 0.03,0.13 590.49,-0.02 -12.57,-90.07 37.39,90.06 390.1,-0.01 -0.03,-0.09 h 37.83 l 59.96,0.09 372.41,-0.02 0.02,-0.07 h 2.54 l 59.4,0.07 213.62,-0.01 -0.01,-0.06 h 45.45 l 59.46,0.06 219.3,-0.01 -0.01,-0.05 h 37.08 l 59.98,0.05 372.63,-0.02 0.01,-0.03 275.38,0.02 v -0.02 h 462.55 l 206.49,770.63 H 4353.77 v 154.56 H 6259.25 L 5969.93,1955.21 h -776.84 v 0.01 l -185.03,-0.01 -0.01,0.04 -210.35,0.01 -56.95,-0.05 h -298.23 l 0.01,0.02 -18.14,-0.02 h -306.3 v 0.02 l -12.22,-0.02 h -166.86 l -0.03,0.08 -209.15,0.01 -58.33,-0.09 h -297.51 l 0.03,0.1 h -87.18 L 2826.94,847.59"
         style="fill:#231f20;fill-opacity:1;fill-rule:nonzero;stroke:none"
         transform="matrix(0.13333333,0,0,-0.13333333,0,978.36)" />
      <path
         id="path228"
         d="M 700.781,2957.68 H 404.688 l 53.085,-139.6 -210.5,-785.58 H 835.84 l 55.742,208.02 H 508.617 l 192.164,717.16"
         style="fill:#ffffff;fill-opacity:1;fill-rule:nonzero;stroke:none"
         transform="matrix(0.13333333,0,0,-0.13333333,0,978.36)" />
      <path
         id="path229"
         d="m 1107.63,2957.68 53.09,-139.6 -210.497,-785.58 h 205.597 l 247.9,925.18 h -296.09"
         style="fill:#ffffff;fill-opacity:1;fill-rule:nonzero;stroke:none"
         transform="matrix(0.13333333,0,0,-0.13333333,0,978.36)" />
      <path
         id="path230"
         d="m 1730.77,2597.73 -55.38,-206.66 h 126.7 l -40.71,-151.91 h -233.11 l 136.79,510.49 h 422.06 l 55.74,208.03 h -709.47 l 52,-140.96 -210.13,-784.22 h 619.69 l 151.46,565.23 h -315.64"
         style="fill:#ffffff;fill-opacity:1;fill-rule:nonzero;stroke:none"
         transform="matrix(0.13333333,0,0,-0.13333333,0,978.36)" />
      <path
         id="path231"
         d="M 2582.13,2597.73 H 2357.7 l 96.45,359.95 h -287.4 l 51.99,-140.96 -210.13,-784.22 h 197.64 l 96.08,358.57 h 224.42 l -96.08,-358.57 h 196.91 l 247.91,925.18 h -196.92 l -96.44,-359.95"
         style="fill:#ffffff;fill-opacity:1;fill-rule:nonzero;stroke:none"
         transform="matrix(0.13333333,0,0,-0.13333333,0,978.36)" />
      <path
         id="path232"
         d="m 4156.13,2957.68 -130.56,-487.22 -189.42,487.22 H 3632 l 51.99,-140.96 -210.12,-784.22 h 197.63 l 130.55,487.22 189.43,-487.22 h 114.39 l 247.9,925.18 h -197.64"
         style="fill:#ffffff;fill-opacity:1;fill-rule:nonzero;stroke:none"
         transform="matrix(0.13333333,0,0,-0.13333333,0,978.36)" />
      <path
         id="path233"
         d="m 4376.2,2957.68 53.09,-139.6 -210.49,-785.58 h 205.59 l 247.9,925.18 H 4376.2"
         style="fill:#ffffff;fill-opacity:1;fill-rule:nonzero;stroke:none"
         transform="matrix(0.13333333,0,0,-0.13333333,0,978.36)" />
      <path
         id="path234"
         d="m 5225.38,2957.68 -130.56,-487.22 -189.42,487.22 h -204.16 l 52,-140.96 -210.13,-784.22 h 197.63 l 130.56,487.22 189.43,-487.22 h 114.38 l 247.91,925.18 h -197.64"
         style="fill:#ffffff;fill-opacity:1;fill-rule:nonzero;stroke:none"
         transform="matrix(0.13333333,0,0,-0.13333333,0,978.36)" />
      <path
         id="path235"
         d="m 6102.79,2749.65 55.74,208.03 h -709.46 l 51.99,-140.96 -210.12,-784.22 h 619.68 l 151.46,565.23 h -315.64 l -55.37,-206.66 h 126.69 l -40.71,-151.91 h -233.11 l 136.79,510.49 h 422.06"
         style="fill:#ffffff;fill-opacity:1;fill-rule:nonzero;stroke:none"
         transform="matrix(0.13333333,0,0,-0.13333333,0,978.36)" />
      <path
         id="path236"
         d="M 404.941,2957.74 531.816,2813.57 369.184,2137.66 H 741.738 L 836.316,2032.7 H 246.922 l 211.074,785.48 -53.055,139.56"
         style="fill:#d3d2d2;fill-opacity:1;fill-rule:nonzero;stroke:none"
         transform="matrix(0.13333333,0,0,-0.13333333,0,978.36)" />
      <path
         id="path237"
         d="m 1107.37,2957.74 144.18,-144.17 -179.94,-685.14 84.2,-95.73 H 950.508 l 209.922,785.48 -53.06,139.56"
         style="fill:#d3d2d2;fill-opacity:1;fill-rule:nonzero;stroke:none"
         transform="matrix(0.13333333,0,0,-0.13333333,0,978.36)" />
      <path
         id="path238"
         d="m 1433.79,2957.74 51.9,-140.71 -209.92,-784.33 h 619.38 l -103.8,95.73 -377.17,-3.45 175.32,671.29 -155.71,161.47"
         style="fill:#d3d2d2;fill-opacity:1;fill-rule:nonzero;stroke:none"
         transform="matrix(0.13333333,0,0,-0.13333333,0,978.36)" />
      <path
         id="path239"
         d="m 2166.21,2957.74 143.02,-148.79 -189.16,-693.2 86.51,-83.05 h -198.39 l 211.08,784.33 -53.06,140.71"
         style="fill:#d3d2d2;fill-opacity:1;fill-rule:nonzero;stroke:none"
         transform="matrix(0.13333333,0,0,-0.13333333,0,978.36)" />
      <path
         id="path240"
         d="m 3474.18,2032.7 209.92,784.33 -51.9,140.71 130.34,-134.95 -184.55,-720.88 93.42,-69.21 h -197.23"
         style="fill:#d3d2d2;fill-opacity:1;fill-rule:nonzero;stroke:none"
         transform="matrix(0.13333333,0,0,-0.13333333,0,978.36)" />
      <path
         id="path241"
         d="m 4376.15,2957.74 141.88,-153.4 -193.78,-693.2 100.35,-78.44 h -205.31 l 209.92,785.48 -53.06,139.56"
         style="fill:#d3d2d2;fill-opacity:1;fill-rule:nonzero;stroke:none"
         transform="matrix(0.13333333,0,0,-0.13333333,0,978.36)" />
      <path
         id="path242"
         d="m 4701.41,2957.74 51.91,-140.71 -209.92,-784.33 h 197.23 l -73.82,92.28 179.94,657.45 -145.34,175.31"
         style="fill:#d3d2d2;fill-opacity:1;fill-rule:nonzero;stroke:none"
         transform="matrix(0.13333333,0,0,-0.13333333,0,978.36)" />
      <path
         id="path243"
         d="m 5449.98,2957.74 51.9,-140.71 -209.92,-784.33 h 197.24 l -66.9,95.73 173.01,654 -145.33,175.31"
         style="fill:#d3d2d2;fill-opacity:1;fill-rule:nonzero;stroke:none"
         transform="matrix(0.13333333,0,0,-0.13333333,0,978.36)" />
      <path
         id="path244"
         d="m 2627.57,2032.7 -113.03,79.59 51.9,182.24 -39.21,96.88 -96.89,-358.71 h 197.23"
         style="fill:#d3d2d2;fill-opacity:1;fill-rule:nonzero;stroke:none"
         transform="matrix(0.13333333,0,0,-0.13333333,0,978.36)" />
      <path
         id="path245"
         d="m 4155.85,2957.74 82.81,-99.68 -145.1,-564.68 -68.04,177.62 130.33,486.74"
         style="fill:#d3d2d2;fill-opacity:1;fill-rule:nonzero;stroke:none"
         transform="matrix(0.13333333,0,0,-0.13333333,0,978.36)" />
      <path
         id="path246"
         d="m 5225.07,2958.89 73.82,-118.8 -136.11,-545.56 -68.05,177.63 130.34,486.73"
         style="fill:#d3d2d2;fill-opacity:1;fill-rule:nonzero;stroke:none"
         transform="matrix(0.13333333,0,0,-0.13333333,0,978.36)" />
      <path
         id="path247"
         d="m 5422.3,2128.43 342.56,-3.45 145.33,-92.28 h -618.23 l 130.34,95.73"
         style="fill:#d3d2d2;fill-opacity:1;fill-rule:nonzero;stroke:none"
         transform="matrix(0.13333333,0,0,-0.13333333,0,978.36)" />
      <path
         id="path248"
         d="m 3344.31,2752.67 h 209.16 l 54.59,203.77 h -693.83 l 80.31,-203.77 h 147.05 l -189.84,-708.47 138.7,132.24 -103.53,-741.99 450.19,1084.35 -205.68,-201.82 112.88,435.69"
         style="fill:#ffffff;fill-opacity:1;fill-rule:nonzero;stroke:none"
         transform="matrix(0.13333333,0,0,-0.13333333,0,978.36)" />
      <path
         id="path249"
         d="m 2914.24,2959.63 135.34,-125.11 h 185.37 l -142.16,-561.83 81.89,72.8 -187.66,-907.56 103.5,741.51 -138.75,-131.92 189.36,707.96 h -146.71 l -80.18,204.15"
         style="fill:#d3d2d2;fill-opacity:1;fill-rule:nonzero;stroke:none"
         transform="matrix(0.13333333,0,0,-0.13333333,0,978.36)" />
      <path
         id="path250"
         d="m 2653.65,5660.31 -43.93,494.65 c -2.83,1.44 -7.69,4.11 -7.69,4.11 l 4.79,-193.3 c 10.71,-136.64 -182.14,-338.02 -228.57,-391.96 -46.43,-53.93 -14.29,-129.45 -14.29,-129.45 0,0 150,143.84 185.72,147.43 35.71,3.6 378.57,-338.02 378.57,-338.02 -2.82,2.84 -5.85,6.95 -9.03,12.1 l -317.45,425.17 51.88,-30.73"
         style="fill:#e9e9e9;fill-opacity:1;fill-rule:nonzero;stroke:none"
         transform="matrix(0.13333333,0,0,-0.13333333,0,978.36)" />
      <path
         id="path251"
         d="m 3751.73,5660.31 43.93,494.65 c 2.82,1.44 7.68,4.11 7.68,4.11 l -4.79,-193.3 c -10.71,-136.64 182.15,-338.02 228.58,-391.96 46.43,-53.93 14.28,-129.45 14.28,-129.45 0,0 -150,143.84 -185.71,147.43 -35.71,3.6 -378.58,-338.02 -378.58,-338.02 2.83,2.84 5.85,6.95 9.04,12.1 l 317.44,425.17 -51.87,-30.73"
         style="fill:#e9e9e9;fill-opacity:1;fill-rule:nonzero;stroke:none"
         transform="matrix(0.13333333,0,0,-0.13333333,0,978.36)" />
      <path
         id="path252"
         d="m 3686.44,4776.44 57.77,-67.07 c -190.46,18.78 -281.57,156.84 -281.57,156.84 430.95,-145.24 483.34,138.09 483.34,138.09 -235.73,-202.38 -473.82,-59.52 -473.82,-59.52 173.82,-14.28 466.68,164.29 500.01,190.48 33.33,26.19 50,-9.53 50,-9.53 -45.24,-80.95 -21.43,-147.62 -21.43,-147.62 -68.06,-289.22 -314.3,-201.67 -314.3,-201.67"
         style="fill:#e9e9e9;fill-opacity:1;fill-rule:nonzero;stroke:none"
         transform="matrix(0.13333333,0,0,-0.13333333,0,978.36)" />
      <path
         id="path253"
         d="m 2715.37,4776.44 -57.76,-67.07 c 190.46,18.78 281.58,156.84 281.58,156.84 -430.96,-145.24 -483.35,138.09 -483.35,138.09 235.73,-202.38 473.82,-59.52 473.82,-59.52 -173.81,-14.28 -466.67,164.29 -500,190.48 -33.34,26.19 -50.01,-9.53 -50.01,-9.53 45.24,-80.95 21.43,-147.62 21.43,-147.62 68.06,-289.22 314.29,-201.67 314.29,-201.67"
         style="fill:#e9e9e9;fill-opacity:1;fill-rule:nonzero;stroke:none"
         transform="matrix(0.13333333,0,0,-0.13333333,0,978.36)" />
      <path
         id="path254"
         d="M 4719.44,2982.64 H 1733.43 v 399.47 h 2986.01 v -399.47"
         style="fill:#231f20;fill-opacity:1;fill-rule:nonzero;stroke:none"
         transform="matrix(0.13333333,0,0,-0.13333333,0,978.36)" />
      <path
         id="path255"
         d="m 1944.56,3201.51 -39.71,102.71 h -54.51 l 14.12,-37.15 -56.01,-209.05 h 52.39 l 34.74,129.65 26.83,-68.83 63.72,68.83 -34.74,-129.65 h 52.59 l 65.96,246.2 h -30.43 l -94.95,-102.71"
         style="fill:#ffffff;fill-opacity:1;fill-rule:nonzero;stroke:none"
         transform="matrix(0.13333333,0,0,-0.13333333,0,978.36)" />
      <path
         id="path256"
         d="m 2125.37,3267.07 -56.01,-209.05 h 54.71 l 65.97,246.2 h -78.79 l 14.12,-37.15"
         style="fill:#ffffff;fill-opacity:1;fill-rule:nonzero;stroke:none"
         transform="matrix(0.13333333,0,0,-0.13333333,0,978.36)" />
      <path
         id="path257"
         d="m 2321.03,3304.22 h -78.79 l 14.13,-37.15 -56.01,-209.05 h 156.61 l 14.84,55.36 H 2269.9 l 51.13,190.84"
         style="fill:#ffffff;fill-opacity:1;fill-rule:nonzero;stroke:none"
         transform="matrix(0.13333333,0,0,-0.13333333,0,978.36)" />
      <path
         id="path258"
         d="m 2423.95,3249.23 h 39.68 l -51.23,-191.21 h 54.71 l 51.23,191.21 h 56.45 l 14.73,54.99 h -187.25 l 21.68,-54.99"
         style="fill:#ffffff;fill-opacity:1;fill-rule:nonzero;stroke:none"
         transform="matrix(0.13333333,0,0,-0.13333333,0,978.36)" />
      <path
         id="path259"
         d="m 2683.08,3248.85 h 60.49 l -36.4,-135.84 h -60.49 z m -47.81,17.86 -55.92,-208.69 h 165.68 l 65.96,246.2 h -189.56 l 13.84,-37.51"
         style="fill:#ffffff;fill-opacity:1;fill-rule:nonzero;stroke:none"
         transform="matrix(0.13333333,0,0,-0.13333333,0,978.36)" />
      <path
         id="path260"
         d="m 2968.13,3174.57 -50.41,129.65 h -54.33 l 13.84,-37.51 -55.92,-208.69 h 52.59 l 34.75,129.65 50.4,-129.65 h 30.44 l 65.97,246.2 h -52.59 l -34.74,-129.65"
         style="fill:#ffffff;fill-opacity:1;fill-rule:nonzero;stroke:none"
         transform="matrix(0.13333333,0,0,-0.13333333,0,978.36)" />
      <path
         id="path261"
         d="M 3392.7,3304.22 3334,3208.8 h -35.25 l 25.56,95.42 h -76.47 l 13.83,-37.51 -55.91,-208.69 h 52.59 l 25.57,95.42 h 35.25 l 7.57,-95.42 h 52.58 l -9.77,123.1 75.75,123.1 h -52.6"
         style="fill:#ffffff;fill-opacity:1;fill-rule:nonzero;stroke:none"
         transform="matrix(0.13333333,0,0,-0.13333333,0,978.36)" />
      <path
         id="path262"
         d="m 3510.28,3267.07 -56.01,-209.05 h 156.8 l 14.74,54.99 h -102.1 l 10.83,40.43 h 102.11 l 14.82,55.36 h -102.1 l 10.74,40.05 h 102.11 l 14.82,55.37 h -180.69 l 13.93,-37.15"
         style="fill:#ffffff;fill-opacity:1;fill-rule:nonzero;stroke:none"
         transform="matrix(0.13333333,0,0,-0.13333333,0,978.36)" />
      <path
         id="path263"
         d="m 3833.97,3200.43 h -59.71 l 27.81,103.79 h -76.48 l 13.93,-37.15 -32.59,-121.64 h 56.25 l -23.42,-87.41 h 52.4 l 23.42,87.41 h 56.25 l 42.55,158.79 h -52.59 l -27.82,-103.79"
         style="fill:#ffffff;fill-opacity:1;fill-rule:nonzero;stroke:none"
         transform="matrix(0.13333333,0,0,-0.13333333,0,978.36)" />
      <path
         id="path264"
         d="m 4068.62,3174.57 -50.41,129.65 h -54.32 l 13.83,-37.51 -55.91,-208.69 h 52.58 l 34.75,129.65 50.41,-129.65 h 30.43 l 65.98,246.2 h -52.6 l -34.74,-129.65"
         style="fill:#ffffff;fill-opacity:1;fill-rule:nonzero;stroke:none"
         transform="matrix(0.13333333,0,0,-0.13333333,0,978.36)" />
      <path
         id="path265"
         d="m 4219.77,3267.07 -56.01,-209.05 h 156.81 l 14.74,54.99 h -102.1 l 10.83,40.43 h 102.1 l 14.84,55.36 h -102.1 l 10.73,40.05 h 102.1 l 14.83,55.37 h -180.7 l 13.93,-37.15"
         style="fill:#ffffff;fill-opacity:1;fill-rule:nonzero;stroke:none"
         transform="matrix(0.13333333,0,0,-0.13333333,0,978.36)" />
      <path
         id="path266"
         d="m 4606.64,3249.23 14.74,54.99 h -185.14 l 13.93,-37.15 -30.44,-113.63 h 108.65 l -10.74,-40.06 h -108.65 l -14.83,-55.36 h 161.25 l 40.4,150.78 h -108.65 l 10.83,40.43 h 108.65"
         style="fill:#ffffff;fill-opacity:1;fill-rule:nonzero;stroke:none"
         transform="matrix(0.13333333,0,0,-0.13333333,0,978.36)" />
    </g>
  </g>
</svg>
